<?xml version="1.0" encoding="utf-8" standalone="no"?>
<!-- Generated by Therion 6.2.1 (2024-03-20) -->
<!-- Author: Paweł Krawczyk -->
<!-- Title: Obodska cave, Montenegro -->
<!DOCTYPE svg PUBLIC "-//W3C//DTD SVG 1.1//EN" "http://www.w3.org/Graphics/SVG/1.1/DTD/svg11.dtd">
<svg width="115.101cm" height="17.169cm" viewBox="-66.166 -178.573 3262.693 486.693" xmlns="http://www.w3.org/2000/svg" xmlns:xlink="http://www.w3.org/1999/xlink">
<defs>
<pattern id="patt_pattern_water_UIS_output/obodska_ext.svg" patternUnits="userSpaceOnUse" width="1.800" height="10.200" patternTransform="matrix(0.707 0.707 -0.707 0.707 0.000 0.000)">
<g transform="translate(0.100 0.100)" fill="black" stroke="black">
<path fill="inherit" stroke="none" d="M-0.100 -0.100L0.100 -0.100L0.100 0.100L0.100 10.100L-0.100 10.100L-0.100 9.900Z" />
</g>
</pattern>
<g id="F_aaaaaaa_output/obodska_ext.svg">
<g>
<clipPath id="clip_3_output/obodska_ext.svg">
  <path d="M-50.240 304.560C-45.600 303.760 -40.960 302.960 -36.320 302.160C-23.680 297.680 -11.040 293.200 1.600 288.720C8.480 284.880 15.360 281.040 22.240 277.200C25.920 272.880 29.600 268.560 33.280 264.240C49.440 264.080 65.600 263.920 81.760 263.760C81.760 263.760 100.960 268.080 103.360 268.560C105.760 269.040 136.960 277.200 136.960 277.200C142.560 278.000 148.160 278.800 153.760 279.600C172.320 279.760 190.880 279.920 209.440 280.080C222.080 280.560 234.720 281.040 247.360 281.520C258.080 282.480 268.800 283.440 279.520 284.400C290.720 285.680 301.920 286.960 313.120 288.240C319.520 289.200 325.920 290.160 332.320 291.120C337.600 291.760 342.880 292.400 348.160 293.040C361.760 294.800 375.360 296.560 388.960 298.320C398.880 297.840 408.800 297.360 418.720 296.880C433.120 297.360 447.520 297.840 461.920 298.320C469.920 298.800 477.920 299.280 485.920 299.760C516.160 299.760 546.400 299.760 576.640 299.760C581.120 302.160 585.600 304.560 590.080 306.960C595.840 303.920 601.600 300.880 607.360 297.840C607.360 297.840 624.640 293.520 632.320 290.160C640.000 286.800 656.320 282.000 660.640 281.520C664.960 281.040 680.800 281.040 680.800 281.040C680.800 281.040 702.400 287.280 705.280 287.280C708.160 287.280 723.040 283.920 725.440 283.440C727.840 282.960 748.960 280.560 748.960 280.560C758.720 280.720 768.480 280.880 778.240 281.040C778.240 281.040 807.520 281.040 808.960 280.080C810.400 279.120 833.440 274.800 836.800 272.400C840.160 270.000 890.080 272.880 890.080 272.880C890.080 272.880 909.760 271.920 912.160 271.920C914.560 271.920 956.320 281.520 960.160 279.600C964.000 277.680 985.120 271.920 993.760 271.440C1002.400 270.960 1024.960 264.240 1027.360 264.240C1029.760 264.240 1045.600 239.760 1045.600 239.760C1045.600 239.760 1057.120 229.680 1060.960 229.680C1064.800 229.680 1085.440 230.640 1085.440 230.640C1085.440 230.640 1122.880 232.560 1126.240 230.640C1129.600 228.720 1141.120 222.960 1147.360 220.080C1153.600 217.200 1180.000 206.640 1180.000 206.640C1185.920 207.600 1191.840 208.560 1197.760 209.520C1197.760 209.520 1275.040 209.040 1276.480 208.560C1277.920 208.080 1297.120 217.200 1297.120 217.200C1297.120 217.200 1324.000 222.000 1325.920 222.000C1327.840 222.000 1351.360 217.680 1356.640 217.200C1361.920 216.720 1398.400 212.880 1398.400 212.880C1398.400 212.880 1406.560 195.600 1408.000 195.120C1409.440 194.640 1429.600 187.920 1432.480 186.000C1435.360 184.080 1455.520 181.200 1457.440 180.720C1459.360 180.240 1482.400 177.360 1482.400 177.360C1504.640 171.600 1526.880 165.840 1549.120 160.080C1570.720 154.960 1592.320 149.840 1613.920 144.720C1620.800 141.040 1627.680 137.360 1634.560 133.680C1641.760 129.360 1648.960 125.040 1656.160 120.720C1677.440 109.840 1698.720 98.960 1720.000 88.080C1736.000 81.360 1752.000 74.640 1768.000 67.920C1768.000 67.920 1796.320 64.560 1798.240 64.080C1800.160 63.600 1835.200 42.480 1835.200 42.480C1847.680 42.320 1860.160 42.160 1872.640 42.000C1882.560 41.200 1892.480 40.400 1902.400 39.600C1908.160 39.120 1913.920 38.640 1919.680 38.160C1934.560 38.800 1949.440 39.440 1964.320 40.080C1977.760 40.560 1991.200 41.040 2004.640 41.520C2004.640 41.520 2049.760 41.040 2052.640 40.560C2055.520 40.080 2111.680 37.200 2114.080 36.720C2116.480 36.240 2144.320 31.440 2147.680 31.440C2151.040 31.440 2196.640 32.880 2196.640 32.880C2199.840 34.480 2203.040 36.080 2206.240 37.680C2215.040 45.520 2223.840 53.360 2232.640 61.200C2240.320 67.120 2248.000 73.040 2255.680 78.960C2255.680 78.960 2284.000 102.960 2285.440 102.480C2286.880 102.000 2307.520 104.400 2307.520 104.400C2307.520 104.400 2332.480 113.040 2334.880 113.520C2337.280 114.000 2358.880 116.880 2358.880 116.880C2386.240 115.600 2413.600 114.320 2440.960 113.040C2452.160 114.160 2463.360 115.280 2474.560 116.400C2492.160 119.760 2509.760 123.120 2527.360 126.480C2541.120 130.800 2554.880 135.120 2568.640 139.440C2580.000 141.360 2591.360 143.280 2602.720 145.200C2610.560 144.080 2618.400 142.960 2626.240 141.840C2633.920 142.160 2641.600 142.480 2649.280 142.800C2675.520 145.040 2701.760 147.280 2728.000 149.520C2738.880 150.480 2749.760 151.440 2760.640 152.400C2777.280 152.400 2793.920 152.400 2810.560 152.400C2825.120 154.480 2839.680 156.560 2854.240 158.640C2854.240 158.640 2873.440 158.160 2875.360 158.160C2877.280 158.160 2914.240 151.920 2914.240 151.920C2925.120 148.240 2936.000 144.560 2946.880 140.880C2956.960 139.440 2967.040 138.000 2977.120 136.560C2991.680 134.320 3006.240 132.080 3020.800 129.840C3037.600 128.080 3054.400 126.320 3071.200 124.560C3082.880 126.640 3094.560 128.720 3106.240 130.800C3113.600 132.880 3120.960 134.960 3128.320 137.040C3129.120 141.040 3129.920 145.040 3130.720 149.040C3130.720 149.040 3125.920 159.600 3122.560 165.840C3119.200 172.080 3113.920 200.880 3110.560 204.240C3107.200 207.600 3096.160 226.800 3090.400 230.640C3084.640 234.480 3067.840 247.440 3064.000 248.400C3060.160 249.360 3035.200 257.040 3025.120 258.480C3015.040 259.920 2980.960 267.120 2980.960 267.120C2970.080 262.000 2959.200 256.880 2948.320 251.760C2932.800 246.640 2917.280 241.520 2901.760 236.400C2895.520 234.960 2889.280 233.520 2883.040 232.080C2850.080 221.840 2817.120 211.600 2784.160 201.360C2784.160 201.360 2762.560 202.800 2761.120 203.280C2759.680 203.760 2727.520 214.320 2727.520 214.320C2716.960 213.200 2706.400 212.080 2695.840 210.960C2681.920 212.880 2668.000 214.800 2654.080 216.720C2654.080 216.720 2609.440 245.520 2607.040 247.920C2604.640 250.320 2578.720 284.880 2578.720 284.880C2572.160 294.960 2565.600 305.040 2559.040 315.120C2555.680 318.640 2552.320 322.160 2548.960 325.680C2540.000 316.720 2531.040 307.760 2522.080 298.800C2516.640 289.040 2511.200 279.280 2505.760 269.520C2505.760 269.520 2500.960 255.120 2496.640 253.680C2492.320 252.240 2472.640 245.040 2471.200 244.080C2469.760 243.120 2414.560 223.920 2414.560 223.920C2398.240 220.240 2381.920 216.560 2365.600 212.880C2362.880 212.400 2360.160 211.920 2357.440 211.440C2347.200 206.480 2336.960 201.520 2326.720 196.560C2316.000 194.480 2305.280 192.400 2294.560 190.320C2284.480 184.560 2274.400 178.800 2264.320 173.040C2250.880 165.200 2237.440 157.360 2224.000 149.520C2217.760 147.760 2211.520 146.000 2205.280 144.240C2196.320 145.040 2187.360 145.840 2178.400 146.640C2178.400 146.640 2154.400 114.960 2150.560 114.960C2146.720 114.960 2113.120 98.640 2110.240 99.120C2107.360 99.600 2056.480 93.840 2054.560 93.360C2052.640 92.880 1972.480 101.040 1969.600 101.520C1966.720 102.000 1936.960 111.600 1936.960 111.600C1924.800 112.400 1912.640 113.200 1900.480 114.000C1900.480 114.000 1864.960 120.720 1862.560 121.200C1860.160 121.680 1829.440 131.760 1826.080 132.240C1822.720 132.720 1772.800 137.040 1772.800 137.040C1763.040 138.640 1753.280 140.240 1743.520 141.840C1733.120 146.800 1722.720 151.760 1712.320 156.720C1696.800 163.760 1681.280 170.800 1665.760 177.840C1659.520 182.640 1653.280 187.440 1647.040 192.240C1631.520 194.480 1616.000 196.720 1600.480 198.960C1588.800 202.800 1577.120 206.640 1565.440 210.480C1546.560 218.800 1527.680 227.120 1508.800 235.440C1501.600 239.920 1494.400 244.400 1487.200 248.880C1487.200 248.880 1385.920 279.600 1384.000 279.120C1382.080 278.640 1320.160 285.360 1318.240 285.360C1316.320 285.360 1292.320 297.840 1292.320 297.840C1274.560 306.640 1256.800 315.440 1239.040 324.240C1228.320 327.440 1217.600 330.640 1206.880 333.840C1181.120 332.240 1155.360 330.640 1129.600 329.040C1112.480 329.360 1095.360 329.680 1078.240 330.000C1064.960 328.560 1051.680 327.120 1038.400 325.680C1026.560 325.840 1014.720 326.000 1002.880 326.160C1002.880 326.160 904.960 358.800 899.200 359.760C893.440 360.720 850.720 379.920 847.360 380.400C844.000 380.880 813.760 387.600 811.840 388.080C809.920 388.560 748.480 420.720 748.480 420.720C733.280 430.160 718.080 439.600 702.880 449.040C699.040 450.960 695.200 452.880 691.360 454.800C691.360 454.800 671.680 449.520 669.760 449.040C667.840 448.560 637.120 425.520 637.120 425.520C637.120 425.520 614.080 414.480 612.640 414.000C611.200 413.520 596.800 407.280 596.800 407.280C590.560 409.680 584.320 412.080 578.080 414.480C570.400 413.040 562.720 411.600 555.040 410.160C524.960 408.880 494.880 407.600 464.800 406.320C464.800 406.320 432.640 407.760 428.800 408.240C424.960 408.720 397.120 416.880 397.120 416.880C397.120 416.880 373.600 422.160 367.360 422.640C361.120 423.120 328.000 426.960 328.000 426.960C320.480 424.560 312.960 422.160 305.440 419.760C296.960 414.960 288.480 410.160 280.000 405.360C267.360 398.960 254.720 392.560 242.080 386.160C232.000 384.400 221.920 382.640 211.840 380.880C211.840 380.880 177.760 371.760 175.360 371.760C172.960 371.760 136.960 380.880 136.960 380.880C130.080 380.880 123.200 380.880 116.320 380.880C116.320 380.880 97.600 378.960 96.160 378.480C94.720 378.000 70.240 376.560 70.240 376.560C60.640 382.480 51.040 388.400 41.440 394.320C34.560 396.400 27.680 398.480 20.800 400.560C13.440 400.560 6.080 400.560 -1.280 400.560C-8.480 403.440 -15.680 406.320 -22.880 409.200C-26.560 418.960 -30.240 428.720 -33.920 438.480C-39.360 393.840 -44.800 349.200 -50.240 304.560" />
</clipPath>
<g clip-path="url(#clip_3_output/obodska_ext.svg)">
<path fill="#cccccc" stroke="none" d="M3130.720 149.040L2932.000 141.360L2956.960 121.200L3009.280 115.920L3093.760 116.400L3160.000 127.440C3160.000 127.440 3158.080 141.840 3156.640 143.280C3155.200 144.720 3142.240 153.840 3142.240 153.840L3130.720 149.040Z" />
<path fill="url(#patt_pattern_water_UIS_output/obodska_ext.svg)" stroke="none" d="M3130.720 149.040L2932.000 141.360L2956.960 121.200L3009.280 115.920L3093.760 116.400L3160.000 127.440C3160.000 127.440 3158.080 141.840 3156.640 143.280C3155.200 144.720 3142.240 153.840 3142.240 153.840L3130.720 149.040Z" />
<path fill="#cccccc" stroke="none" d="M1807.840 54.480L1811.680 32.400L1850.560 12.240L2037.760 1.200L2214.400 16.560L2258.080 30.480L2255.680 60.720L1807.840 54.480Z" />
<path fill="url(#patt_pattern_water_UIS_output/obodska_ext.svg)" stroke="none" d="M1807.840 54.480L1811.680 32.400L1850.560 12.240L2037.760 1.200L2214.400 16.560L2258.080 30.480L2255.680 60.720L1807.840 54.480Z" />
<path fill="none" stroke="#000000" stroke-width="0.500" d="M2963.680 125.520L2966.560 137.520L2961.280 145.200L2945.440 150.000L2932.960 143.280L2919.520 141.360L2914.720 156.240L2900.800 156.720L2886.880 143.280L2878.720 163.920L2872.480 174.480L2851.360 168.240C2851.360 168.240 2839.840 163.440 2838.400 162.000C2836.960 160.560 2827.840 165.840 2827.840 165.840L2793.280 162.480L2779.840 150.480L2755.360 139.440C2755.360 139.440 2749.600 141.840 2748.160 143.280C2746.720 144.720 2739.040 155.280 2739.040 155.280L2723.680 161.520L2716.960 159.600L2709.280 152.880L2699.200 146.160L2683.840 140.400L2670.400 153.840L2657.440 156.240L2638.720 152.880L2620.480 146.160L2597.920 138.480L2584.000 148.560L2577.280 148.560L2563.360 146.640L2544.640 145.680L2532.160 141.840L2523.520 135.120L2497.120 135.600L2451.040 137.040C2451.040 137.040 2429.920 139.440 2428.000 140.880C2426.080 142.320 2412.160 138.960 2412.160 138.960L2404.000 128.400L2386.720 129.360L2374.720 134.160L2361.280 133.680L2339.680 120.720C2339.680 120.720 2332.000 99.600 2332.960 98.160C2333.920 96.720 2322.880 104.880 2322.880 104.880L2311.360 135.600L2292.160 120.240L2284.480 110.160L2273.920 102.480L2269.600 90.480C2269.600 90.480 2247.040 75.120 2247.040 73.200C2247.040 71.280 2244.640 55.920 2244.640 55.920L2230.240 57.840L2225.920 72.240C2225.920 72.240 2211.520 77.520 2209.600 78.000C2207.680 78.480 2203.840 74.160 2203.840 74.160C2203.840 74.160 2203.360 62.160 2195.200 63.120C2187.040 64.080 2187.040 49.200 2187.040 49.200L2179.360 37.680C2179.360 37.680 2171.200 40.080 2167.360 42.000C2163.520 43.920 2160.160 39.120 2160.160 39.120L2129.920 24.720L2092.000 28.080L2087.200 28.080L2075.200 41.040L2061.760 51.600L2048.800 50.640L2044.000 28.080L2008.000 30.960L1920.640 27.120L1854.400 25.680L1838.560 49.200C1838.560 49.200 1842.880 62.640 1843.360 64.080C1843.840 65.520 1831.360 69.840 1831.360 69.840L1817.440 70.320L1801.120 73.200L1771.840 82.800L1759.360 93.840L1738.240 102.960L1717.600 112.560L1702.240 113.040L1696.000 113.520C1696.000 113.520 1683.040 102.480 1682.560 105.360C1682.080 108.240 1677.760 115.920 1677.760 115.920C1677.760 115.920 1669.600 128.400 1669.120 129.840C1668.640 131.280 1663.840 134.160 1663.840 134.160L1653.760 136.560L1637.440 146.640L1625.440 150.960L1619.680 158.640L1578.400 143.280L1560.160 147.600L1559.680 166.320L1539.040 175.920L1506.400 188.400L1499.200 200.880C1499.200 200.880 1490.560 210.960 1489.120 212.880C1487.680 214.800 1485.280 212.880 1485.280 212.880L1474.720 211.440L1468.480 207.120L1439.680 209.040L1422.400 215.760L1411.840 226.320L1395.520 228.720L1390.240 228.720L1370.560 231.120L1361.920 233.040L1341.280 233.520L1337.920 233.040L1323.040 232.080L1312.000 237.360L1299.520 238.320L1292.320 229.200L1279.840 226.320L1270.720 244.080L1263.520 254.640L1242.880 267.600C1242.880 267.600 1236.160 266.160 1233.760 265.680C1231.360 265.200 1223.200 264.720 1223.200 264.720L1206.400 243.600L1170.880 227.760L1158.880 217.680C1158.880 217.680 1148.800 210.000 1145.440 209.520C1142.080 209.040 1138.720 218.160 1138.720 218.160L1135.360 238.800L1131.040 264.720L1125.280 270.000L1116.640 274.800L1103.200 277.200L1093.600 269.040L1072.000 247.440L1050.400 232.080L1039.840 240.720L1033.600 258.000L1033.120 275.280L1023.520 276.720L1005.280 275.760L986.560 267.120C986.560 267.120 972.160 267.120 972.640 270.480C973.120 273.840 972.640 290.640 972.640 290.640L968.320 300.720L953.440 309.360L942.400 306.960C942.400 306.960 933.760 306.000 928.480 305.520C923.200 305.040 923.680 291.600 923.680 289.680C923.680 287.760 925.600 274.320 925.600 274.320L910.240 263.280L907.840 279.120L895.360 290.640L886.240 293.040L867.520 289.200C867.520 289.200 865.120 280.080 865.120 277.200C865.120 274.320 853.120 269.520 853.120 269.520L846.400 267.600L836.800 277.680L836.800 288.720L831.520 296.400L814.720 293.040L808.480 285.840L797.920 270.480L790.240 286.800L784.480 294.000L782.560 302.640L766.720 298.800L758.080 292.560L748.960 276.720L732.640 277.200L727.360 293.040L720.160 301.680L711.890 306.720C711.890 306.720 693.760 304.080 691.840 303.600C689.920 303.120 679.840 299.760 679.840 299.760L669.760 292.080L655.840 278.160C655.840 278.160 633.280 283.920 633.280 285.840C633.280 287.760 641.440 296.400 641.440 296.400L638.560 303.120L616.960 304.560L607.360 297.840L585.760 287.760L582.880 301.200L580.960 313.200L573.760 315.600L562.240 317.040L546.400 315.120L542.560 306.960L525.280 287.760L511.840 295.920L508.480 311.280L505.120 316.560L483.520 309.840L465.280 291.120L449.920 286.800L455.680 303.600L445.120 317.040C445.120 317.040 429.280 317.040 426.880 317.040C424.480 317.040 420.160 305.520 420.160 305.520C420.160 305.520 414.880 290.640 413.440 290.160C412.000 289.680 410.560 293.040 410.560 293.040L406.240 303.600L394.720 308.400L387.520 306.000L380.320 297.360L377.920 290.160L366.880 296.400L359.680 302.640L353.440 308.880L338.080 309.360L339.040 296.880L341.440 283.920L323.200 284.880L319.360 295.920L312.160 302.640L299.200 299.280L284.800 292.560L279.520 280.080L269.440 277.200L264.160 287.280L249.760 293.040L243.520 288.240L239.200 279.120L228.160 279.120L225.760 288.720L221.920 294.960L208.000 294.480L196.000 289.680L191.680 275.280L178.240 269.520L175.840 285.840L172.480 300.720C172.480 300.720 155.680 292.080 152.320 289.200C148.960 286.320 149.440 283.440 149.440 281.520C149.440 279.600 146.560 267.120 146.560 267.120L140.800 268.560L137.440 282.000L126.880 280.080L117.280 276.240L106.240 263.760L93.280 258.480L90.880 270.960L91.360 283.440L76.480 290.640L62.560 292.560L45.760 286.800L45.280 274.320L38.080 258.960L23.200 258.000L31.840 274.320L33.280 283.920L16.960 288.240L0.640 283.440" />
<path fill="none" stroke="#000000" stroke-width="0.500" d="M3130.720 149.040L2932.000 141.360L2956.960 121.200L3009.280 115.920L3093.760 116.400L3160.000 127.440C3160.000 127.440 3158.080 141.840 3156.640 143.280C3155.200 144.720 3142.240 153.840 3142.240 153.840Z" />
<path fill="none" stroke="#000000" stroke-width="0.500" d="M1807.840 54.480L1811.680 32.400L1850.560 12.240L2037.760 1.200L2214.400 16.560L2258.080 30.480L2255.680 60.720Z" />
</g>
</g>
</g>
<g id="G_aaaaaaa_output/obodska_ext.svg">
</g>
<g id="B_aaaaaaa_output/obodska_ext.svg">
<path fill="none" stroke="inherit" stroke-width="0.350" d="M0.760 273.560L14.680 271.160L52.600 257.720L73.240 246.200L84.280 233.240L132.760 232.760C132.760 232.760 151.960 237.080 154.360 237.560C156.760 238.040 187.960 246.200 187.960 246.200L204.760 248.600L260.440 249.080L298.360 250.520L330.520 253.400L364.120 257.240L383.320 260.120L399.160 262.040L439.960 267.320L469.720 265.880L512.920 267.320L536.920 268.760L627.640 268.760L641.080 275.960L658.360 266.840C658.360 266.840 675.640 262.520 683.320 259.160C691.000 255.800 707.320 251.000 711.640 250.520C715.960 250.040 731.800 250.040 731.800 250.040C731.800 250.040 753.400 256.280 756.280 256.280C759.160 256.280 774.040 252.920 776.440 252.440C778.840 251.960 799.960 249.560 799.960 249.560L829.240 250.040C829.240 250.040 858.520 250.040 859.960 249.080C861.400 248.120 884.440 243.800 887.800 241.400C891.160 239.000 941.080 241.880 941.080 241.880C941.080 241.880 960.760 240.920 963.160 240.920C965.560 240.920 1007.320 250.520 1011.160 248.600C1015.000 246.680 1036.120 240.920 1044.760 240.440C1053.400 239.960 1075.960 233.240 1078.360 233.240C1080.760 233.240 1096.600 208.760 1096.600 208.760C1096.600 208.760 1108.120 198.680 1111.960 198.680C1115.800 198.680 1136.440 199.640 1136.440 199.640C1136.440 199.640 1173.880 201.560 1177.240 199.640C1180.600 197.720 1192.120 191.960 1198.360 189.080C1204.600 186.200 1231.000 175.640 1231.000 175.640L1248.760 178.520C1248.760 178.520 1326.040 178.040 1327.480 177.560C1328.920 177.080 1348.120 186.200 1348.120 186.200C1348.120 186.200 1375.000 191.000 1376.920 191.000C1378.840 191.000 1402.360 186.680 1407.640 186.200C1412.920 185.720 1449.400 181.880 1449.400 181.880C1449.400 181.880 1457.560 164.600 1459.000 164.120C1460.440 163.640 1480.600 156.920 1483.480 155.000C1486.360 153.080 1506.520 150.200 1508.440 149.720C1510.360 149.240 1533.400 146.360 1533.400 146.360L1600.120 129.080L1664.920 113.720L1685.560 102.680L1707.160 89.720L1771.000 57.080L1819.000 36.920C1819.000 36.920 1847.320 33.560 1849.240 33.080C1851.160 32.600 1886.200 11.480 1886.200 11.480L1923.640 11.000L1953.400 8.600L1970.680 7.160L2015.320 9.080L2055.640 10.520C2055.640 10.520 2100.760 10.040 2103.640 9.560C2106.520 9.080 2162.680 6.200 2165.080 5.720C2167.480 5.240 2195.320 0.440 2198.680 0.440C2202.040 0.440 2247.640 1.880 2247.640 1.880L2257.240 6.680L2283.640 30.200L2306.680 47.960C2306.680 47.960 2335.000 71.960 2336.440 71.480C2337.880 71.000 2358.520 73.400 2358.520 73.400C2358.520 73.400 2383.480 82.040 2385.880 82.520C2388.280 83.000 2409.880 85.880 2409.880 85.880L2491.960 82.040L2525.560 85.400L2578.360 95.480L2619.640 108.440L2653.720 114.200L2677.240 110.840L2700.280 111.800L2779.000 118.520L2811.640 121.400L2861.560 121.400L2905.240 127.640C2905.240 127.640 2924.440 127.160 2926.360 127.160C2928.280 127.160 2965.240 120.920 2965.240 120.920L2997.880 109.880L3028.120 105.560L3071.800 98.840L3122.200 93.560L3157.240 99.800L3179.320 106.040" />
<path fill="none" stroke="inherit" stroke-width="0.350" d="M3181.720 118.040C3181.720 118.040 3176.920 128.600 3173.560 134.840C3170.200 141.080 3164.920 169.880 3161.560 173.240C3158.200 176.600 3147.160 195.800 3141.400 199.640C3135.640 203.480 3118.840 216.440 3115.000 217.400C3111.160 218.360 3086.200 226.040 3076.120 227.480C3066.040 228.920 3031.960 236.120 3031.960 236.120L2999.320 220.760L2952.760 205.400L2934.040 201.080L2835.160 170.360C2835.160 170.360 2813.560 171.800 2812.120 172.280C2810.680 172.760 2778.520 183.320 2778.520 183.320L2746.840 179.960L2705.080 185.720C2705.080 185.720 2660.440 214.520 2658.040 216.920C2655.640 219.320 2629.720 253.880 2629.720 253.880L2610.040 284.120L2599.960 294.680L2573.080 267.800L2556.760 238.520C2556.760 238.520 2551.960 224.120 2547.640 222.680C2543.320 221.240 2523.640 214.040 2522.200 213.080C2520.760 212.120 2465.560 192.920 2465.560 192.920L2416.600 181.880" />
<path fill="none" stroke="inherit" stroke-width="0.350" d="M2408.440 180.440L2377.720 165.560L2345.560 159.320L2315.320 142.040L2275.000 118.520L2256.280 113.240L2229.400 115.640C2229.400 115.640 2205.400 83.960 2201.560 83.960C2197.720 83.960 2164.120 67.640 2161.240 68.120C2158.360 68.600 2107.480 62.840 2105.560 62.360C2103.640 61.880 2023.480 70.040 2020.600 70.520C2017.720 71.000 1987.960 80.600 1987.960 80.600L1951.480 83.000C1951.480 83.000 1915.960 89.720 1913.560 90.200C1911.160 90.680 1880.440 100.760 1877.080 101.240C1873.720 101.720 1823.800 106.040 1823.800 106.040L1794.520 110.840L1763.320 125.720L1716.760 146.840L1698.040 161.240L1651.480 167.960L1616.440 179.480L1559.800 204.440L1538.200 217.880C1538.200 217.880 1436.920 248.600 1435.000 248.120C1433.080 247.640 1371.160 254.360 1369.240 254.360C1367.320 254.360 1343.320 266.840 1343.320 266.840L1290.040 293.240L1257.880 302.840L1180.600 298.040L1129.240 299.000L1089.400 294.680L1053.880 295.160C1053.880 295.160 955.960 327.800 950.200 328.760C944.440 329.720 901.720 348.920 898.360 349.400C895.000 349.880 864.760 356.600 862.840 357.080C860.920 357.560 799.480 389.720 799.480 389.720L753.880 418.040L742.360 423.800C742.360 423.800 722.680 418.520 720.760 418.040C718.840 417.560 688.120 394.520 688.120 394.520C688.120 394.520 665.080 383.480 663.640 383.000C662.200 382.520 647.800 376.280 647.800 376.280L629.080 383.480L606.040 379.160L515.800 375.320C515.800 375.320 483.640 376.760 479.800 377.240C475.960 377.720 448.120 385.880 448.120 385.880C448.120 385.880 424.600 391.160 418.360 391.640C412.120 392.120 379.000 395.960 379.000 395.960L356.440 388.760L331.000 374.360L293.080 355.160L262.840 349.880C262.840 349.880 228.760 340.760 226.360 340.760C223.960 340.760 187.960 349.880 187.960 349.880L167.320 349.880C167.320 349.880 148.600 347.960 147.160 347.480C145.720 347.000 121.240 345.560 121.240 345.560L92.440 363.320L71.800 369.560L49.720 369.560L28.120 378.200L17.080 407.480" />
</g>
<g id="I_aaaaaaa_output/obodska_ext.svg">
<path fill="inherit" stroke="none" d="M0.760 273.560C5.400 272.760 10.040 271.960 14.680 271.160C27.320 266.680 39.960 262.200 52.600 257.720C59.480 253.880 66.360 250.040 73.240 246.200C76.920 241.880 80.600 237.560 84.280 233.240C100.440 233.080 116.600 232.920 132.760 232.760C132.760 232.760 151.960 237.080 154.360 237.560C156.760 238.040 187.960 246.200 187.960 246.200C193.560 247.000 199.160 247.800 204.760 248.600C223.320 248.760 241.880 248.920 260.440 249.080C273.080 249.560 285.720 250.040 298.360 250.520C309.080 251.480 319.800 252.440 330.520 253.400C341.720 254.680 352.920 255.960 364.120 257.240C370.520 258.200 376.920 259.160 383.320 260.120C388.600 260.760 393.880 261.400 399.160 262.040C412.760 263.800 426.360 265.560 439.960 267.320C449.880 266.840 459.800 266.360 469.720 265.880C484.120 266.360 498.520 266.840 512.920 267.320C520.920 267.800 528.920 268.280 536.920 268.760C567.160 268.760 597.400 268.760 627.640 268.760C632.120 271.160 636.600 273.560 641.080 275.960C646.840 272.920 652.600 269.880 658.360 266.840C658.360 266.840 675.640 262.520 683.320 259.160C691.000 255.800 707.320 251.000 711.640 250.520C715.960 250.040 731.800 250.040 731.800 250.040C731.800 250.040 753.400 256.280 756.280 256.280C759.160 256.280 774.040 252.920 776.440 252.440C778.840 251.960 799.960 249.560 799.960 249.560C809.720 249.720 819.480 249.880 829.240 250.040C829.240 250.040 858.520 250.040 859.960 249.080C861.400 248.120 884.440 243.800 887.800 241.400C891.160 239.000 941.080 241.880 941.080 241.880C941.080 241.880 960.760 240.920 963.160 240.920C965.560 240.920 1007.320 250.520 1011.160 248.600C1015.000 246.680 1036.120 240.920 1044.760 240.440C1053.400 239.960 1075.960 233.240 1078.360 233.240C1080.760 233.240 1096.600 208.760 1096.600 208.760C1096.600 208.760 1108.120 198.680 1111.960 198.680C1115.800 198.680 1136.440 199.640 1136.440 199.640C1136.440 199.640 1173.880 201.560 1177.240 199.640C1180.600 197.720 1192.120 191.960 1198.360 189.080C1204.600 186.200 1231.000 175.640 1231.000 175.640C1236.920 176.600 1242.840 177.560 1248.760 178.520C1248.760 178.520 1326.040 178.040 1327.480 177.560C1328.920 177.080 1348.120 186.200 1348.120 186.200C1348.120 186.200 1375.000 191.000 1376.920 191.000C1378.840 191.000 1402.360 186.680 1407.640 186.200C1412.920 185.720 1449.400 181.880 1449.400 181.880C1449.400 181.880 1457.560 164.600 1459.000 164.120C1460.440 163.640 1480.600 156.920 1483.480 155.000C1486.360 153.080 1506.520 150.200 1508.440 149.720C1510.360 149.240 1533.400 146.360 1533.400 146.360C1555.640 140.600 1577.880 134.840 1600.120 129.080C1621.720 123.960 1643.320 118.840 1664.920 113.720C1671.800 110.040 1678.680 106.360 1685.560 102.680C1692.760 98.360 1699.960 94.040 1707.160 89.720C1728.440 78.840 1749.720 67.960 1771.000 57.080C1787.000 50.360 1803.000 43.640 1819.000 36.920C1819.000 36.920 1847.320 33.560 1849.240 33.080C1851.160 32.600 1886.200 11.480 1886.200 11.480C1898.680 11.320 1911.160 11.160 1923.640 11.000C1933.560 10.200 1943.480 9.400 1953.400 8.600C1959.160 8.120 1964.920 7.640 1970.680 7.160C1985.560 7.800 2000.440 8.440 2015.320 9.080C2028.760 9.560 2042.200 10.040 2055.640 10.520C2055.640 10.520 2100.760 10.040 2103.640 9.560C2106.520 9.080 2162.680 6.200 2165.080 5.720C2167.480 5.240 2195.320 0.440 2198.680 0.440C2202.040 0.440 2247.640 1.880 2247.640 1.880C2250.840 3.480 2254.040 5.080 2257.240 6.680C2266.040 14.520 2274.840 22.360 2283.640 30.200C2291.320 36.120 2299.000 42.040 2306.680 47.960C2306.680 47.960 2335.000 71.960 2336.440 71.480C2337.880 71.000 2358.520 73.400 2358.520 73.400C2358.520 73.400 2383.480 82.040 2385.880 82.520C2388.280 83.000 2409.880 85.880 2409.880 85.880C2437.240 84.600 2464.600 83.320 2491.960 82.040C2503.160 83.160 2514.360 84.280 2525.560 85.400C2543.160 88.760 2560.760 92.120 2578.360 95.480C2592.120 99.800 2605.880 104.120 2619.640 108.440C2631.000 110.360 2642.360 112.280 2653.720 114.200C2661.560 113.080 2669.400 111.960 2677.240 110.840C2684.920 111.160 2692.600 111.480 2700.280 111.800C2726.520 114.040 2752.760 116.280 2779.000 118.520C2789.880 119.480 2800.760 120.440 2811.640 121.400C2828.280 121.400 2844.920 121.400 2861.560 121.400C2876.120 123.480 2890.680 125.560 2905.240 127.640C2905.240 127.640 2924.440 127.160 2926.360 127.160C2928.280 127.160 2965.240 120.920 2965.240 120.920C2976.120 117.240 2987.000 113.560 2997.880 109.880C3007.960 108.440 3018.040 107.000 3028.120 105.560C3042.680 103.320 3057.240 101.080 3071.800 98.840C3088.600 97.080 3105.400 95.320 3122.200 93.560C3133.880 95.640 3145.560 97.720 3157.240 99.800C3164.600 101.880 3171.960 103.960 3179.320 106.040C3180.120 110.040 3180.920 114.040 3181.720 118.040C3181.720 118.040 3176.920 128.600 3173.560 134.840C3170.200 141.080 3164.920 169.880 3161.560 173.240C3158.200 176.600 3147.160 195.800 3141.400 199.640C3135.640 203.480 3118.840 216.440 3115.000 217.400C3111.160 218.360 3086.200 226.040 3076.120 227.480C3066.040 228.920 3031.960 236.120 3031.960 236.120C3021.080 231.000 3010.200 225.880 2999.320 220.760C2983.800 215.640 2968.280 210.520 2952.760 205.400C2946.520 203.960 2940.280 202.520 2934.040 201.080C2901.080 190.840 2868.120 180.600 2835.160 170.360C2835.160 170.360 2813.560 171.800 2812.120 172.280C2810.680 172.760 2778.520 183.320 2778.520 183.320C2767.960 182.200 2757.400 181.080 2746.840 179.960C2732.920 181.880 2719.000 183.800 2705.080 185.720C2705.080 185.720 2660.440 214.520 2658.040 216.920C2655.640 219.320 2629.720 253.880 2629.720 253.880C2623.160 263.960 2616.600 274.040 2610.040 284.120C2606.680 287.640 2603.320 291.160 2599.960 294.680C2591.000 285.720 2582.040 276.760 2573.080 267.800C2567.640 258.040 2562.200 248.280 2556.760 238.520C2556.760 238.520 2551.960 224.120 2547.640 222.680C2543.320 221.240 2523.640 214.040 2522.200 213.080C2520.760 212.120 2465.560 192.920 2465.560 192.920C2449.240 189.240 2432.920 185.560 2416.600 181.880C2413.880 181.400 2411.160 180.920 2408.440 180.440C2398.200 175.480 2387.960 170.520 2377.720 165.560C2367.000 163.480 2356.280 161.400 2345.560 159.320C2335.480 153.560 2325.400 147.800 2315.320 142.040C2301.880 134.200 2288.440 126.360 2275.000 118.520C2268.760 116.760 2262.520 115.000 2256.280 113.240C2247.320 114.040 2238.360 114.840 2229.400 115.640C2229.400 115.640 2205.400 83.960 2201.560 83.960C2197.720 83.960 2164.120 67.640 2161.240 68.120C2158.360 68.600 2107.480 62.840 2105.560 62.360C2103.640 61.880 2023.480 70.040 2020.600 70.520C2017.720 71.000 1987.960 80.600 1987.960 80.600C1975.800 81.400 1963.640 82.200 1951.480 83.000C1951.480 83.000 1915.960 89.720 1913.560 90.200C1911.160 90.680 1880.440 100.760 1877.080 101.240C1873.720 101.720 1823.800 106.040 1823.800 106.040C1814.040 107.640 1804.280 109.240 1794.520 110.840C1784.120 115.800 1773.720 120.760 1763.320 125.720C1747.800 132.760 1732.280 139.800 1716.760 146.840C1710.520 151.640 1704.280 156.440 1698.040 161.240C1682.520 163.480 1667.000 165.720 1651.480 167.960C1639.800 171.800 1628.120 175.640 1616.440 179.480C1597.560 187.800 1578.680 196.120 1559.800 204.440C1552.600 208.920 1545.400 213.400 1538.200 217.880C1538.200 217.880 1436.920 248.600 1435.000 248.120C1433.080 247.640 1371.160 254.360 1369.240 254.360C1367.320 254.360 1343.320 266.840 1343.320 266.840C1325.560 275.640 1307.800 284.440 1290.040 293.240C1279.320 296.440 1268.600 299.640 1257.880 302.840C1232.120 301.240 1206.360 299.640 1180.600 298.040C1163.480 298.360 1146.360 298.680 1129.240 299.000C1115.960 297.560 1102.680 296.120 1089.400 294.680C1077.560 294.840 1065.720 295.000 1053.880 295.160C1053.880 295.160 955.960 327.800 950.200 328.760C944.440 329.720 901.720 348.920 898.360 349.400C895.000 349.880 864.760 356.600 862.840 357.080C860.920 357.560 799.480 389.720 799.480 389.720C784.280 399.160 769.080 408.600 753.880 418.040C750.040 419.960 746.200 421.880 742.360 423.800C742.360 423.800 722.680 418.520 720.760 418.040C718.840 417.560 688.120 394.520 688.120 394.520C688.120 394.520 665.080 383.480 663.640 383.000C662.200 382.520 647.800 376.280 647.800 376.280C641.560 378.680 635.320 381.080 629.080 383.480C621.400 382.040 613.720 380.600 606.040 379.160C575.960 377.880 545.880 376.600 515.800 375.320C515.800 375.320 483.640 376.760 479.800 377.240C475.960 377.720 448.120 385.880 448.120 385.880C448.120 385.880 424.600 391.160 418.360 391.640C412.120 392.120 379.000 395.960 379.000 395.960C371.480 393.560 363.960 391.160 356.440 388.760C347.960 383.960 339.480 379.160 331.000 374.360C318.360 367.960 305.720 361.560 293.080 355.160C283.000 353.400 272.920 351.640 262.840 349.880C262.840 349.880 228.760 340.760 226.360 340.760C223.960 340.760 187.960 349.880 187.960 349.880C181.080 349.880 174.200 349.880 167.320 349.880C167.320 349.880 148.600 347.960 147.160 347.480C145.720 347.000 121.240 345.560 121.240 345.560C111.640 351.480 102.040 357.400 92.440 363.320C85.560 365.400 78.680 367.480 71.800 369.560C64.440 369.560 57.080 369.560 49.720 369.560C42.520 372.440 35.320 375.320 28.120 378.200C24.440 387.960 20.760 397.720 17.080 407.480C11.640 362.840 6.200 318.200 0.760 273.560Z" />
</g>
<g id="E_aaaaaaa_output/obodska_ext.svg">
<path fill="none" stroke="#000000" stroke-width="1.000" d="M25.020 273.983C24.173 276.062 25.622 276.954 26.032 278.034C29.930 277.266 32.417 276.519 36.653 275.943C36.522 275.454 36.941 273.580 36.695 271.652" />
<path fill="none" stroke="#000000" stroke-width="1.000" d="M38.776 270.846C39.734 272.776 38.893 274.376 40.129 275.887C44.359 273.350 48.095 273.332 51.851 270.512C51.234 270.050 50.568 268.220 50.310 267.513" />
<path fill="none" stroke="#000000" stroke-width="1.000" d="M52.872 266.537C52.901 267.915 53.200 269.339 54.483 270.990C57.552 269.478 62.362 268.107 65.504 266.425C65.653 265.420 63.835 263.235 63.493 261.826" />
<path fill="none" stroke="#000000" stroke-width="1.000" d="M67.472 261.098C67.778 262.031 67.211 263.560 68.615 265.845C71.455 265.028 72.825 262.761 76.068 263.002C77.213 261.932 78.169 261.982 79.426 259.906C78.188 260.263 78.201 258.807 77.718 257.368" />
<path fill="none" stroke="#000000" stroke-width="1.000" d="M80.739 255.171C81.326 256.756 81.600 258.664 82.378 259.810C85.063 257.116 88.147 254.582 92.186 253.173C91.845 252.798 91.054 251.813 90.377 250.234" />
<path fill="none" stroke="#000000" stroke-width="1.000" d="M93.199 248.585C93.601 249.057 95.176 250.930 94.409 251.502C95.966 251.988 95.653 251.977 95.740 250.562C98.495 248.013 100.389 246.275 102.558 243.611C102.080 241.857 100.918 240.774 99.673 241.123" />
<path fill="none" stroke="#000000" stroke-width="1.000" d="M101.528 238.456C103.537 238.906 103.374 240.465 104.733 240.926C106.068 240.367 106.626 238.447 107.189 238.253C110.819 237.390 113.891 237.784 115.519 238.982C116.053 236.015 115.736 235.114 115.648 234.029" />
<path fill="none" stroke="#000000" stroke-width="1.000" d="M119.307 233.539C119.662 235.844 118.587 236.146 119.812 237.590C123.250 238.563 126.168 237.498 130.189 238.420C131.652 235.850 130.503 234.540 131.030 233.713" />
<path fill="none" stroke="#000000" stroke-width="1.000" d="M133.217 233.559C134.095 234.502 133.634 236.270 134.557 238.495C137.803 237.572 141.573 238.346 146.860 237.543C145.678 236.739 145.907 235.088 146.229 234.238" />
<path fill="none" stroke="#000000" stroke-width="1.000" d="M149.374 233.001C149.346 235.107 149.689 237.088 149.534 237.210C151.153 237.845 153.649 237.505 154.948 236.965C155.982 237.653 157.824 237.610 160.593 238.387C160.661 237.117 160.903 236.838 161.646 234.922" />
<path fill="none" stroke="#000000" stroke-width="1.000" d="M165.270 235.537C163.815 236.362 164.113 237.604 164.002 238.794C168.019 239.759 172.571 241.282 176.102 241.824C176.273 241.399 176.086 238.902 177.229 238.780" />
<path fill="none" stroke="#000000" stroke-width="1.000" d="M178.758 239.525C179.003 240.346 178.635 241.065 178.399 242.217C180.437 243.527 185.770 243.792 190.186 245.335C190.311 243.770 191.298 243.806 190.692 242.104" />
<path fill="none" stroke="#000000" stroke-width="1.000" d="M193.601 242.862C193.806 244.761 193.575 244.807 193.753 246.027C196.581 247.163 200.677 248.737 204.571 248.949C204.543 248.506 206.225 247.291 205.750 246.107" />
<path fill="none" stroke="#000000" stroke-width="1.000" d="M208.463 246.587C208.056 248.546 207.405 248.892 207.679 250.608C210.299 250.369 210.513 250.547 210.258 251.923C213.247 251.802 216.513 251.639 219.105 251.889C219.532 251.221 220.135 249.182 220.674 248.871" />
<path fill="none" stroke="#000000" stroke-width="1.000" d="M223.064 249.256C223.599 251.036 222.912 252.326 221.819 253.555C223.599 252.706 226.104 252.612 227.037 253.710C229.516 253.210 231.820 253.851 234.941 254.217C234.395 251.818 234.841 250.300 234.551 250.101" />
<path fill="none" stroke="#000000" stroke-width="1.000" d="M237.088 249.459C237.300 251.475 237.853 251.960 237.416 254.390C240.688 253.643 246.136 252.935 248.647 254.000C250.176 252.407 249.359 250.612 248.739 249.278" />
<path fill="none" stroke="#000000" stroke-width="1.000" d="M252.332 249.124C251.803 251.934 253.097 252.762 253.178 253.448C256.455 253.726 260.274 253.484 264.158 253.743C263.805 251.950 263.989 251.018 264.194 249.954" />
<path fill="none" stroke="#000000" stroke-width="1.000" d="M267.135 249.346C267.808 250.673 267.929 252.798 267.873 253.841C271.859 254.796 275.056 254.161 279.137 253.366C279.299 253.034 279.894 250.977 280.240 250.866" />
<path fill="none" stroke="#000000" stroke-width="1.000" d="M282.983 250.506C283.344 250.643 283.050 253.446 283.200 253.373C282.850 254.327 283.817 253.848 282.820 254.040C287.938 253.619 291.386 254.287 294.785 253.911C294.583 253.236 293.961 251.717 293.988 251.319" />
<path fill="none" stroke="#000000" stroke-width="1.000" d="M297.602 250.220C296.926 251.873 297.795 253.883 298.343 254.760C302.023 255.355 305.226 255.570 309.137 255.240C309.221 253.466 309.399 252.776 309.197 250.879" />
<path fill="none" stroke="#000000" stroke-width="1.000" d="M312.228 250.448C312.443 252.323 313.174 253.079 312.307 255.392C315.520 254.998 318.250 255.758 321.772 255.362C323.015 256.080 324.178 255.124 324.345 255.617C324.046 255.291 325.337 253.716 324.761 251.339" />
<path fill="none" stroke="#000000" stroke-width="1.000" d="M328.328 252.189C327.179 252.960 328.129 255.044 327.286 255.429C331.150 256.857 335.919 256.397 340.246 257.202C339.857 255.936 339.480 254.140 339.925 253.831" />
<path fill="none" stroke="#000000" stroke-width="1.000" d="M343.280 252.928C342.662 254.742 343.047 255.391 341.765 257.024C346.677 257.589 349.205 258.837 353.924 258.702C353.935 258.933 354.257 257.777 354.110 258.351C354.302 257.169 354.571 255.690 354.424 253.776" />
<path fill="none" stroke="#000000" stroke-width="1.000" d="M357.428 255.332C357.998 255.795 357.985 258.230 357.681 259.342C362.247 259.143 365.016 260.402 368.886 260.023C369.841 259.200 370.306 256.842 369.396 256.061" />
<path fill="none" stroke="#000000" stroke-width="1.000" d="M372.442 255.839C373.208 257.863 372.454 259.721 372.470 260.438C376.293 260.332 380.852 262.000 383.611 261.770C384.271 260.163 383.977 259.074 384.081 258.191" />
<path fill="none" stroke="#000000" stroke-width="1.000" d="M387.530 257.785C387.826 259.341 386.781 261.562 387.809 261.678C390.770 262.909 395.766 262.772 399.242 264.288C399.358 262.924 399.599 261.128 400.276 260.596" />
<path fill="none" stroke="#000000" stroke-width="1.000" d="M402.332 260.394C402.420 261.810 402.732 262.706 401.448 264.000C403.844 264.128 404.917 265.430 405.654 265.130C408.468 265.548 412.093 266.087 413.594 265.771C414.257 264.127 414.600 264.235 414.195 262.602" />
<path fill="none" stroke="#000000" stroke-width="1.000" d="M417.836 262.231C417.635 262.975 417.914 265.877 417.547 266.413C418.336 265.831 421.260 267.143 421.608 267.303C424.011 266.630 426.466 266.960 428.804 267.746C429.851 266.499 430.027 266.063 429.088 264.250" />
<path fill="none" stroke="#000000" stroke-width="1.000" d="M433.091 264.057C432.199 265.023 432.470 267.085 431.953 267.936C436.791 268.919 439.372 269.762 444.143 269.592C444.100 268.291 444.906 266.796 444.593 266.312" />
<path fill="none" stroke="#000000" stroke-width="1.000" d="M446.815 266.534C447.026 267.825 447.911 268.555 446.771 269.529C451.770 271.175 454.339 271.975 458.496 271.747C458.370 271.134 459.337 268.544 459.154 268.247" />
<path fill="none" stroke="#000000" stroke-width="1.000" d="M462.662 269.003C461.410 268.829 462.220 270.867 462.701 272.724C461.684 271.878 462.778 271.708 463.473 272.945C466.120 272.444 470.666 271.782 474.516 272.357C474.535 269.746 474.040 268.577 473.002 268.374" />
<path fill="none" stroke="#000000" stroke-width="1.000" d="M477.018 267.181C476.126 269.602 476.900 270.701 476.695 271.291C480.496 272.007 485.072 271.563 489.145 270.298C488.897 269.767 487.941 268.961 488.200 267.186" />
<path fill="none" stroke="#000000" stroke-width="1.000" d="M491.203 267.392C491.708 267.869 491.088 269.378 491.425 271.071C492.676 270.260 493.046 270.504 492.694 270.489C495.690 271.245 500.989 271.831 504.313 271.852C503.233 269.350 504.087 268.722 504.416 267.220" />
<path fill="none" stroke="#000000" stroke-width="1.000" d="M506.238 267.877C507.588 268.162 507.670 270.445 506.638 270.711C510.743 271.744 515.485 271.218 519.504 272.446C519.330 270.209 519.389 269.917 519.388 267.650" />
<path fill="none" stroke="#000000" stroke-width="1.000" d="M522.222 267.687C522.041 268.502 522.698 270.977 521.587 271.575C526.182 272.018 530.526 272.910 533.895 271.490C533.821 271.527 533.276 269.810 533.306 267.445" />
<path fill="none" stroke="#000000" stroke-width="1.000" d="M537.326 268.001C536.534 269.173 536.376 270.636 537.027 272.300C541.128 272.174 545.054 273.472 549.690 273.402C549.785 271.754 549.646 269.625 550.021 268.864" />
<path fill="none" stroke="#000000" stroke-width="1.000" d="M552.307 269.024C552.474 271.398 551.782 271.280 551.321 273.854C554.808 273.936 557.684 274.098 560.021 274.264C560.613 273.599 563.220 273.495 563.738 273.471C563.535 271.878 563.237 270.436 563.720 270.574" />
<path fill="none" stroke="#000000" stroke-width="1.000" d="M566.838 269.631C566.683 271.483 566.405 273.252 566.661 274.444C571.205 274.456 574.900 274.403 578.736 273.230C579.087 271.865 579.406 271.258 579.085 269.117" />
<path fill="none" stroke="#000000" stroke-width="1.000" d="M581.654 269.815C581.481 271.680 582.128 271.653 582.396 274.017C586.385 272.992 590.622 273.817 593.792 273.885C594.819 272.539 594.120 271.343 594.197 269.076" />
<path fill="none" stroke="#000000" stroke-width="1.000" d="M596.583 269.294C596.262 271.281 597.608 271.773 597.762 273.621C600.707 273.746 604.502 273.221 608.956 273.772C609.059 271.879 609.274 271.531 608.464 269.829" />
<path fill="none" stroke="#000000" stroke-width="1.000" d="M611.747 270.531C611.592 271.358 612.217 272.160 612.545 273.744C616.209 274.172 619.959 274.487 623.339 274.159C623.294 273.053 624.406 271.652 624.107 269.323" />
<path fill="none" stroke="#000000" stroke-width="1.000" d="M627.623 269.850C627.284 271.273 627.444 272.333 626.803 272.998C630.636 273.354 634.644 273.654 639.204 274.460C639.605 271.950 639.716 271.621 639.419 270.449" />
<path fill="none" stroke="#000000" stroke-width="1.000" d="M642.901 269.927C642.479 271.044 642.611 272.862 641.538 274.355C645.142 273.605 647.345 273.435 650.420 274.106C651.446 273.663 652.069 275.158 653.439 274.602C654.176 273.768 655.756 273.778 655.069 271.612" />
<path fill="none" stroke="#000000" stroke-width="1.000" d="M658.656 273.852C658.020 274.328 656.271 275.790 657.086 276.152C659.712 277.907 661.345 279.464 663.548 280.443C664.925 280.560 665.657 279.881 667.578 278.861C667.091 278.849 665.870 277.071 665.008 276.251" />
<path fill="none" stroke="#000000" stroke-width="1.000" d="M668.330 273.900C668.480 276.010 668.306 276.321 669.669 278.643C672.434 275.313 676.327 273.915 679.514 272.800C680.135 271.608 678.926 269.266 678.468 269.138" />
<path fill="none" stroke="#000000" stroke-width="1.000" d="M681.878 267.132C682.944 268.174 681.954 270.115 682.924 270.949C685.594 270.773 690.831 270.225 695.091 267.551C694.521 266.573 693.748 265.579 693.619 264.558" />
<path fill="none" stroke="#000000" stroke-width="1.000" d="M696.034 263.177C696.936 264.885 697.695 265.444 697.312 267.631C700.400 266.597 704.228 265.617 706.345 263.480C706.995 264.629 708.049 262.674 708.087 262.314C707.720 261.461 708.389 260.558 707.257 259.115" />
<path fill="none" stroke="#000000" stroke-width="1.000" d="M709.541 258.859C711.203 258.915 710.605 260.199 712.422 261.588C714.794 261.268 720.135 259.179 722.738 258.908C722.877 257.096 722.642 255.023 721.285 254.094" />
<path fill="none" stroke="#000000" stroke-width="1.000" d="M724.224 253.797C725.441 255.628 725.229 255.722 726.796 257.783C729.990 256.103 732.354 255.368 735.187 255.981C736.048 255.194 736.394 254.554 738.210 256.075C738.204 254.274 737.007 253.266 737.384 251.621" />
<path fill="none" stroke="#000000" stroke-width="1.000" d="M740.053 250.605C740.702 251.900 740.663 254.206 740.697 255.755C744.980 255.584 750.499 254.276 752.405 255.854C752.393 253.220 753.534 252.651 753.588 251.609" />
<path fill="none" stroke="#000000" stroke-width="1.000" d="M757.680 251.598C756.697 253.395 756.789 254.709 755.807 256.143C758.276 255.226 761.759 257.390 767.960 258.101C767.001 257.631 768.640 255.372 769.021 255.086" />
<path fill="none" stroke="#000000" stroke-width="1.000" d="M770.887 254.661C770.142 257.211 769.877 257.581 769.564 258.953C773.857 260.546 778.590 261.237 779.688 261.717C779.926 260.772 780.012 261.411 781.589 260.997C782.606 259.023 781.411 258.747 780.656 257.498" />
<path fill="none" stroke="#000000" stroke-width="1.000" d="M784.686 255.847C784.159 257.332 785.479 259.080 785.566 259.945C789.632 259.926 793.106 258.838 796.155 258.726C795.856 257.276 796.868 256.114 796.329 253.800" />
<path fill="none" stroke="#000000" stroke-width="1.000" d="M799.009 253.812C799.706 255.530 799.144 255.500 800.053 256.636C800.961 257.073 807.372 255.687 812.288 255.618C811.836 254.831 810.905 252.931 811.026 252.041" />
<path fill="none" stroke="#000000" stroke-width="1.000" d="M814.855 252.147C813.891 253.249 814.294 254.196 814.708 256.041C818.911 255.810 822.735 253.927 822.214 255.328C823.431 255.408 826.078 254.964 826.670 254.471C825.880 253.785 826.120 251.371 826.784 251.264" />
<path fill="none" stroke="#000000" stroke-width="1.000" d="M829.721 251.227C830.174 252.046 828.987 253.193 829.088 255.456C834.059 254.329 837.961 254.120 842.036 255.294C841.147 253.649 841.968 252.236 841.573 251.462" />
<path fill="none" stroke="#000000" stroke-width="1.000" d="M844.624 250.365C845.242 252.613 845.045 253.833 844.658 254.502C846.867 255.273 850.002 254.801 851.625 255.707C852.039 254.231 853.673 254.227 856.264 254.740C856.243 254.281 856.503 251.736 856.776 251.379" />
<path fill="none" stroke="#000000" stroke-width="1.000" d="M859.666 251.815C860.389 252.488 860.190 253.096 859.290 254.538C862.751 255.571 867.846 254.901 871.065 254.872C871.676 253.204 872.026 251.390 872.221 250.329" />
<path fill="none" stroke="#000000" stroke-width="1.000" d="M874.661 251.458C874.484 251.579 874.169 253.498 874.652 254.679C878.840 254.231 882.325 253.883 882.185 253.918C882.627 253.955 884.679 253.030 886.197 252.555C885.799 251.217 886.600 250.462 886.086 249.132" />
<path fill="none" stroke="#000000" stroke-width="1.000" d="M888.316 249.118C888.718 249.375 888.369 251.665 889.460 251.793C893.373 251.760 897.569 250.258 901.215 250.331C901.167 247.608 900.310 246.922 899.553 246.429" />
<path fill="none" stroke="#000000" stroke-width="1.000" d="M903.809 245.558C902.881 246.758 903.959 247.274 904.735 249.589C907.806 247.989 910.040 246.930 911.537 247.027C911.004 246.212 912.300 246.562 914.965 245.902C914.665 244.081 915.682 243.379 916.082 240.992" />
<path fill="none" stroke="#000000" stroke-width="1.000" d="M918.488 240.854C918.967 242.882 918.284 244.160 918.038 246.011C922.730 246.125 926.630 245.777 930.134 245.895C930.009 243.984 930.016 243.244 930.136 241.793" />
<path fill="none" stroke="#000000" stroke-width="1.000" d="M934.089 241.361C933.831 242.806 933.953 243.744 933.467 245.967C938.152 245.572 941.432 246.665 945.625 245.886C944.990 245.024 944.955 243.010 946.150 241.378" />
<path fill="none" stroke="#000000" stroke-width="1.000" d="M948.015 241.350C948.642 242.656 948.804 244.246 949.026 245.507C952.967 246.446 957.814 247.011 960.496 246.376C961.252 245.328 961.474 244.406 960.769 242.322" />
<path fill="none" stroke="#000000" stroke-width="1.000" d="M963.029 243.670C963.475 244.318 963.317 245.077 963.357 247.155C964.093 246.396 963.620 246.070 964.077 246.776C964.699 247.515 969.634 246.815 975.266 245.557C975.042 244.263 974.784 242.972 975.425 241.845" />
<path fill="none" stroke="#000000" stroke-width="1.000" d="M978.432 242.040C978.775 243.656 978.349 244.955 978.003 246.911C981.648 245.402 984.857 246.333 986.643 246.521C985.804 245.259 988.961 246.497 990.654 247.083C990.276 246.076 990.988 244.386 991.558 242.456" />
<path fill="none" stroke="#000000" stroke-width="1.000" d="M993.784 242.818C994.266 245.219 994.001 245.665 992.877 247.014C996.224 247.526 1000.377 248.728 1005.514 249.888C1005.037 248.329 1005.062 247.462 1006.306 245.726" />
<path fill="none" stroke="#000000" stroke-width="1.000" d="M1009.673 245.703C1009.391 247.787 1008.619 248.549 1008.532 249.676C1012.070 250.171 1016.340 252.476 1019.449 251.702C1020.393 250.465 1020.719 249.886 1021.340 247.613" />
<path fill="none" stroke="#000000" stroke-width="1.000" d="M1023.533 248.266C1023.080 250.768 1023.990 251.195 1022.321 253.136C1029.456 253.448 1033.249 254.413 1034.174 253.475C1033.948 253.265 1033.888 254.029 1034.257 254.000C1035.168 252.767 1034.103 250.277 1033.934 249.434" />
<path fill="none" stroke="#000000" stroke-width="1.000" d="M1037.275 248.153C1036.392 249.996 1037.550 251.602 1038.250 252.792C1040.369 251.726 1044.368 249.548 1048.608 249.459C1048.371 248.034 1049.073 246.642 1048.148 244.484" />
<path fill="none" stroke="#000000" stroke-width="1.000" d="M1051.730 245.039C1051.564 245.964 1051.954 246.558 1052.195 248.211C1057.051 246.637 1061.406 246.825 1063.539 245.467C1063.845 243.866 1063.035 243.517 1063.137 241.395" />
<path fill="none" stroke="#000000" stroke-width="1.000" d="M1067.142 241.694C1066.401 243.399 1066.881 243.756 1067.479 244.665C1067.741 246.265 1066.762 244.956 1067.477 244.956C1071.003 245.102 1075.311 244.791 1079.325 244.308C1078.602 241.867 1079.117 240.830 1078.580 240.323" />
<path fill="none" stroke="#000000" stroke-width="1.000" d="M1080.287 238.851C1081.797 240.800 1080.841 240.914 1081.239 243.661C1086.551 241.758 1090.646 241.005 1093.652 240.120C1092.887 238.751 1093.489 237.715 1092.267 236.181" />
<path fill="none" stroke="#000000" stroke-width="1.000" d="M1095.989 236.023C1095.074 236.585 1096.073 238.459 1095.762 239.740C1099.222 238.194 1100.306 237.813 1101.479 237.933C1102.520 238.865 1104.232 235.739 1105.773 234.075C1104.725 232.830 1103.844 231.203 1103.101 231.048" />
<path fill="none" stroke="#000000" stroke-width="1.000" d="M1104.144 227.802C1105.926 229.066 1106.934 230.168 1107.961 231.001C1110.008 226.983 1112.305 223.591 1114.752 221.690C1113.336 220.358 1112.879 218.802 1112.138 218.966" />
<path fill="none" stroke="#000000" stroke-width="1.000" d="M1113.635 216.471C1114.723 216.818 1115.319 218.111 1116.210 217.942C1118.672 215.628 1120.250 213.620 1120.029 213.810C1119.045 212.993 1121.035 211.736 1124.900 209.372C1124.022 208.012 1122.459 206.942 1122.277 206.841" />
<path fill="none" stroke="#000000" stroke-width="1.000" d="M1125.210 205.312C1125.297 206.160 1126.749 206.846 1126.624 207.184C1130.055 206.004 1133.539 204.467 1135.157 202.988C1135.887 203.279 1136.500 204.451 1137.833 203.708C1137.073 202.739 1137.412 200.347 1137.614 199.632" />
<path fill="none" stroke="#000000" stroke-width="1.000" d="M1140.918 199.980C1141.433 201.882 1141.473 202.604 1140.059 203.842C1144.282 204.194 1149.476 204.136 1153.368 203.960C1153.275 203.418 1152.584 202.177 1152.292 199.793" />
<path fill="none" stroke="#000000" stroke-width="1.000" d="M1156.602 200.772C1155.220 202.143 1156.316 202.714 1155.721 205.006C1157.714 205.146 1158.836 203.932 1159.283 204.020C1158.956 203.973 1162.714 204.556 1168.075 204.196C1167.400 203.455 1168.652 203.019 1168.023 200.291" />
<path fill="none" stroke="#000000" stroke-width="1.000" d="M1170.439 200.304C1170.596 201.652 1171.068 204.327 1170.512 204.381C1174.912 205.099 1178.461 205.805 1182.468 205.008C1183.116 203.622 1182.073 203.061 1183.310 201.034" />
<path fill="none" stroke="#000000" stroke-width="1.000" d="M1185.272 201.983C1186.234 202.048 1186.678 204.484 1185.799 204.967C1191.052 205.892 1194.964 205.677 1198.685 204.763C1197.428 204.663 1198.220 202.818 1198.088 200.527" />
<path fill="none" stroke="#000000" stroke-width="1.000" d="M1198.705 200.579C1199.987 202.445 1199.572 203.328 1200.349 204.731C1203.261 203.367 1206.767 201.711 1211.408 198.300C1210.510 197.590 1210.568 196.508 1210.342 195.218" />
<path fill="none" stroke="#000000" stroke-width="1.000" d="M1213.097 194.192C1213.727 194.363 1213.742 195.643 1213.778 197.482C1217.452 196.763 1218.623 195.749 1220.964 194.279C1221.467 192.912 1223.341 192.929 1225.549 191.947C1225.138 191.162 1223.358 189.215 1223.738 188.118" />
<path fill="none" stroke="#000000" stroke-width="1.000" d="M1225.726 188.447C1226.304 188.999 1226.806 190.329 1227.641 191.373C1230.394 189.230 1235.186 188.350 1238.340 187.533C1238.631 185.197 1237.436 184.788 1237.926 182.243" />
<path fill="none" stroke="#000000" stroke-width="1.000" d="M1239.457 182.162C1239.942 182.751 1241.107 183.534 1240.922 185.986C1247.023 183.168 1250.493 181.621 1252.060 180.877C1252.775 179.529 1251.999 178.153 1252.091 178.151" />
<path fill="none" stroke="#000000" stroke-width="1.000" d="M1256.375 177.697C1256.649 177.948 1256.527 180.162 1255.080 180.112C1260.075 181.276 1263.741 182.926 1267.697 182.688C1268.055 182.231 1268.671 180.441 1269.064 178.821" />
<path fill="none" stroke="#000000" stroke-width="1.000" d="M1270.545 178.925C1270.824 179.946 1271.530 181.858 1270.499 182.863C1270.434 182.946 1271.274 183.964 1271.683 183.616C1272.417 183.015 1275.971 183.103 1282.511 183.060C1281.939 182.264 1282.738 181.223 1282.649 178.921" />
<path fill="none" stroke="#000000" stroke-width="1.000" d="M1284.974 178.644C1284.971 180.200 1284.882 182.822 1286.099 183.263C1289.810 183.257 1293.046 182.964 1297.011 183.938C1297.104 182.474 1297.899 180.210 1297.710 179.454" />
<path fill="none" stroke="#000000" stroke-width="1.000" d="M1300.460 178.566C1300.567 180.139 1300.413 181.293 1300.789 183.005C1304.106 184.019 1308.908 182.683 1313.314 183.102C1312.187 182.413 1312.422 180.703 1312.146 179.401" />
<path fill="none" stroke="#000000" stroke-width="1.000" d="M1315.338 179.173C1316.051 181.305 1315.661 181.833 1316.366 183.072C1319.861 183.614 1323.093 183.371 1327.203 182.459C1327.741 181.253 1327.068 180.381 1327.095 179.253" />
<path fill="none" stroke="#000000" stroke-width="1.000" d="M1331.208 179.134C1329.840 180.881 1330.624 182.429 1331.196 183.697C1335.609 183.725 1339.163 182.688 1342.626 183.327C1342.067 182.320 1342.334 179.781 1342.537 178.104" />
<path fill="none" stroke="#000000" stroke-width="1.000" d="M1346.255 178.154C1344.942 179.400 1345.313 181.155 1345.417 183.329C1348.603 182.484 1350.178 182.600 1350.825 182.353C1351.328 182.055 1354.327 183.933 1357.206 184.812C1358.241 183.219 1358.775 182.172 1358.390 181.197" />
<path fill="none" stroke="#000000" stroke-width="1.000" d="M1361.251 181.902C1361.418 183.436 1361.172 184.178 1360.731 186.728C1364.791 188.960 1370.774 191.300 1371.699 190.357C1371.932 190.730 1372.189 188.037 1373.109 187.889" />
<path fill="none" stroke="#000000" stroke-width="1.000" d="M1374.757 186.965C1374.508 189.468 1374.919 191.088 1373.258 190.968C1376.250 192.134 1381.776 193.527 1385.329 194.399C1385.890 192.524 1386.497 191.585 1386.604 189.223" />
<path fill="none" stroke="#000000" stroke-width="1.000" d="M1390.024 189.745C1389.780 191.829 1389.483 192.840 1388.311 194.096C1393.516 195.018 1398.611 195.798 1400.527 195.857C1399.782 195.587 1400.890 195.809 1401.314 196.404C1399.941 195.066 1400.780 192.966 1400.334 192.068" />
<path fill="none" stroke="#000000" stroke-width="1.000" d="M1403.026 190.864C1403.184 192.622 1403.463 193.442 1403.408 195.287C1405.826 195.021 1410.797 194.655 1415.527 192.923C1414.510 191.931 1414.623 190.671 1414.995 189.088" />
<path fill="none" stroke="#000000" stroke-width="1.000" d="M1417.809 188.747C1418.120 190.546 1418.992 192.450 1418.928 193.235C1422.723 191.576 1427.302 192.076 1429.792 190.530C1430.448 190.469 1429.535 189.109 1430.490 187.699" />
<path fill="none" stroke="#000000" stroke-width="1.000" d="M1433.429 187.531C1433.638 188.453 1432.857 190.338 1432.995 191.517C1436.270 191.027 1441.278 190.992 1444.576 190.118C1444.528 189.195 1444.887 187.442 1445.309 185.569" />
<path fill="none" stroke="#000000" stroke-width="1.000" d="M1447.337 184.977C1448.023 186.611 1447.880 188.652 1447.814 189.229C1452.363 189.546 1456.994 189.283 1460.856 188.128C1459.476 186.572 1459.804 185.655 1460.630 184.585" />
<path fill="none" stroke="#000000" stroke-width="1.000" d="M1463.344 183.064C1462.384 184.814 1463.834 186.462 1463.799 188.153C1467.982 187.308 1472.397 186.276 1472.571 186.408C1472.450 186.568 1472.844 185.261 1472.887 183.810C1473.042 184.579 1471.361 182.729 1469.358 183.074" />
<path fill="none" stroke="#000000" stroke-width="1.000" d="M1471.258 180.366C1471.984 180.561 1472.930 181.058 1475.649 181.069C1476.420 177.356 1478.511 173.790 1480.088 170.384C1479.075 170.822 1478.035 169.931 1476.976 169.476" />
<path fill="none" stroke="#000000" stroke-width="1.000" d="M1482.077 164.702C1481.843 166.336 1482.469 167.449 1482.394 168.666C1484.071 167.866 1488.825 166.020 1494.586 164.806C1494.154 163.882 1492.223 162.058 1492.636 161.137" />
<path fill="none" stroke="#000000" stroke-width="1.000" d="M1494.588 160.837C1495.699 162.299 1497.070 162.983 1497.420 164.292C1501.478 161.610 1504.779 161.036 1506.219 160.213C1507.011 159.152 1507.029 159.737 1507.942 159.021C1507.705 158.820 1507.808 156.140 1505.941 156.009" />
<path fill="none" stroke="#000000" stroke-width="1.000" d="M1510.298 154.769C1509.991 156.328 1510.475 156.604 1511.000 158.139C1513.796 157.157 1519.217 156.903 1521.960 156.649C1522.713 154.165 1522.351 153.281 1521.268 151.792" />
<path fill="none" stroke="#000000" stroke-width="1.000" d="M1525.088 152.455C1524.546 153.429 1525.597 154.507 1525.810 155.927C1528.122 154.874 1530.038 154.340 1531.350 155.296C1531.708 153.924 1533.997 155.018 1537.565 153.609C1537.472 151.851 1536.245 150.661 1536.662 149.043" />
<path fill="none" stroke="#000000" stroke-width="1.000" d="M1539.273 148.996C1540.618 150.737 1540.234 152.814 1539.790 153.832C1544.987 152.435 1549.091 151.614 1552.060 151.963C1551.879 151.061 1552.087 149.927 1552.123 147.562" />
<path fill="none" stroke="#000000" stroke-width="1.000" d="M1555.423 148.291C1554.800 148.630 1554.306 149.551 1554.573 151.640C1555.412 152.222 1556.610 150.619 1555.778 150.710C1559.438 150.179 1563.132 150.349 1567.299 149.233C1566.827 147.269 1566.110 146.253 1566.038 144.271" />
<path fill="none" stroke="#000000" stroke-width="1.000" d="M1568.505 143.814C1568.330 145.371 1568.993 146.707 1569.045 148.160C1573.315 146.277 1577.686 146.012 1581.175 144.622C1580.758 143.209 1580.883 141.713 1580.530 141.815" />
<path fill="none" stroke="#000000" stroke-width="1.000" d="M1584.130 139.960C1583.244 140.920 1584.835 142.614 1583.937 143.935C1587.504 143.741 1591.501 142.811 1596.144 141.844C1595.344 139.281 1596.045 137.822 1595.433 137.602" />
<path fill="none" stroke="#000000" stroke-width="1.000" d="M1598.677 136.791C1598.462 137.725 1598.001 138.294 1598.648 139.902C1603.360 138.870 1606.994 138.038 1610.146 136.536C1610.800 136.048 1610.387 134.059 1610.116 134.140" />
<path fill="none" stroke="#000000" stroke-width="1.000" d="M1612.757 131.997C1612.376 134.662 1612.493 135.178 1613.467 136.979C1616.186 135.390 1620.163 134.901 1622.336 133.960C1624.247 134.622 1625.007 134.290 1625.040 133.575C1625.604 132.886 1623.724 130.398 1623.504 129.565" />
<path fill="none" stroke="#000000" stroke-width="1.000" d="M1626.958 128.450C1626.769 130.915 1627.453 130.994 1627.432 132.803C1631.792 132.468 1635.944 130.748 1640.014 129.353C1639.463 128.675 1639.463 127.524 1638.688 126.052" />
<path fill="none" stroke="#000000" stroke-width="1.000" d="M1641.549 126.236C1642.579 127.187 1642.433 128.001 1643.275 129.332C1647.193 128.995 1651.253 127.281 1654.098 126.100C1653.482 125.049 1654.315 123.426 1653.529 123.489" />
<path fill="none" stroke="#000000" stroke-width="1.000" d="M1656.464 121.814C1657.212 123.040 1657.635 124.549 1658.051 125.987C1661.685 124.303 1664.459 124.246 1668.261 122.514C1668.126 121.644 1668.751 119.924 1668.005 119.461" />
<path fill="none" stroke="#000000" stroke-width="1.000" d="M1670.880 118.744C1671.351 119.467 1672.008 120.825 1671.651 123.265C1675.078 121.422 1680.363 121.385 1683.974 120.425C1683.734 118.354 1682.334 117.952 1682.319 115.090" />
<path fill="none" stroke="#000000" stroke-width="1.000" d="M1685.557 114.323C1685.804 116.829 1686.610 117.822 1687.265 118.486C1686.291 118.569 1688.278 119.155 1688.733 118.057C1691.093 117.472 1694.653 115.369 1697.537 113.281C1696.844 112.305 1696.206 111.525 1695.087 109.439" />
<path fill="none" stroke="#000000" stroke-width="1.000" d="M1698.893 108.569C1697.929 109.765 1698.616 110.802 1699.437 112.467C1703.501 111.242 1705.159 109.949 1709.021 108.099C1709.100 108.013 1710.143 107.126 1711.024 106.647C1710.488 104.842 1709.533 103.483 1708.559 103.360" />
<path fill="none" stroke="#000000" stroke-width="1.000" d="M1710.257 101.964C1711.311 102.513 1713.049 104.395 1713.376 105.177C1716.336 103.036 1719.875 101.637 1723.939 98.609C1722.331 97.493 1722.157 96.159 1720.543 95.389" />
<path fill="none" stroke="#000000" stroke-width="1.000" d="M1723.353 94.125C1725.163 94.843 1724.958 96.880 1725.974 97.733C1726.563 96.686 1728.476 95.334 1729.735 94.580C1731.816 93.395 1734.839 92.746 1736.033 90.948C1735.807 90.512 1736.081 88.621 1734.601 87.397" />
<path fill="none" stroke="#000000" stroke-width="1.000" d="M1737.203 85.995C1737.235 87.946 1737.907 88.933 1738.413 89.817C1742.016 88.578 1745.746 86.727 1749.210 85.197C1749.854 83.104 1748.813 83.085 1748.068 80.472" />
<path fill="none" stroke="#000000" stroke-width="1.000" d="M1751.216 79.241C1751.330 80.862 1751.512 82.319 1752.603 82.892C1755.445 80.998 1758.898 79.588 1763.223 77.182C1762.917 76.236 1761.356 75.927 1760.936 74.573" />
<path fill="none" stroke="#000000" stroke-width="1.000" d="M1764.956 72.131C1764.338 74.763 1765.405 75.397 1766.198 77.251C1769.410 74.363 1773.454 72.846 1777.088 71.073C1776.755 69.521 1776.226 68.025 1774.544 66.927" />
<path fill="none" stroke="#000000" stroke-width="1.000" d="M1777.885 65.536C1778.097 67.405 1778.514 67.859 1778.765 69.233C1783.438 67.200 1787.254 65.453 1790.464 63.406C1790.133 62.792 1788.758 62.347 1787.840 59.782" />
<path fill="none" stroke="#000000" stroke-width="1.000" d="M1790.406 59.814C1791.184 60.978 1792.595 62.086 1793.119 62.473C1792.532 61.828 1793.023 62.410 1793.998 61.563C1797.344 61.147 1800.560 59.152 1804.117 58.020C1803.444 56.562 1803.193 55.929 1802.277 54.676" />
<path fill="none" stroke="#000000" stroke-width="1.000" d="M1805.243 53.792C1805.256 54.605 1806.429 54.960 1805.709 56.918C1809.582 55.278 1813.608 54.543 1817.044 51.716C1817.159 51.556 1816.118 48.886 1816.873 48.071" />
<path fill="none" stroke="#000000" stroke-width="1.000" d="M1818.380 47.621C1819.898 49.348 1820.529 50.362 1819.934 50.614C1824.275 50.014 1827.230 48.325 1830.838 45.858C1831.636 45.709 1830.488 43.984 1830.152 42.275" />
<path fill="none" stroke="#000000" stroke-width="1.000" d="M1833.401 41.391C1833.936 43.123 1833.997 43.254 1834.548 44.446C1836.021 44.636 1839.720 42.699 1842.145 41.252C1841.928 41.566 1843.665 41.779 1845.022 42.122C1845.971 40.280 1845.204 39.501 1845.368 36.778" />
<path fill="none" stroke="#000000" stroke-width="1.000" d="M1847.703 37.676C1847.601 38.393 1848.766 40.058 1848.603 41.616C1852.413 40.646 1855.891 40.075 1860.141 39.448C1859.918 38.909 1860.178 37.636 1859.697 35.595" />
<path fill="none" stroke="#000000" stroke-width="1.000" d="M1862.342 34.853C1863.765 36.239 1862.935 38.655 1864.292 40.122C1868.729 38.914 1871.575 38.289 1872.171 37.440C1872.147 37.584 1873.270 38.213 1875.865 36.992C1874.458 35.486 1873.517 33.872 1873.857 32.711" />
<path fill="none" stroke="#000000" stroke-width="1.000" d="M1875.481 32.472C1876.544 33.022 1877.189 34.215 1877.436 34.819C1881.325 33.344 1883.894 31.419 1888.612 28.970C1887.798 27.218 1887.335 27.556 1886.563 24.926" />
<path fill="none" stroke="#000000" stroke-width="1.000" d="M1889.074 23.630C1889.077 25.111 1889.424 25.867 1890.311 27.061C1895.106 25.933 1898.030 22.977 1900.338 21.276C1899.762 19.621 1899.218 19.786 1898.613 18.215" />
<path fill="none" stroke="#000000" stroke-width="1.000" d="M1901.347 15.726C1902.300 17.491 1903.318 18.232 1903.352 20.077C1906.493 18.368 1909.561 17.015 1908.977 16.510C1911.531 17.164 1912.539 16.990 1915.086 17.000C1915.073 14.293 1914.339 14.304 1914.023 12.203" />
<path fill="none" stroke="#000000" stroke-width="1.000" d="M1917.741 12.900C1917.641 13.067 1917.804 14.758 1917.686 16.685C1922.189 16.347 1926.331 16.125 1929.614 16.109C1929.964 15.325 1930.286 13.941 1930.301 11.899" />
<path fill="none" stroke="#000000" stroke-width="1.000" d="M1933.470 11.546C1932.914 13.452 1932.919 15.460 1932.515 15.409C1936.922 16.423 1941.346 15.417 1945.381 15.459C1944.542 14.567 1945.025 13.857 1944.995 11.813" />
<path fill="none" stroke="#000000" stroke-width="1.000" d="M1946.677 12.260C1947.464 14.076 1947.979 14.535 1948.216 16.244C1951.712 15.388 1955.771 14.862 1958.941 15.298C1959.139 13.525 1959.627 12.435 1959.940 11.680" />
<path fill="none" stroke="#000000" stroke-width="1.000" d="M1963.137 10.581C1961.905 11.784 1963.059 13.649 1961.981 15.219C1966.246 14.950 1969.960 13.303 1974.488 13.519C1974.610 11.676 1975.007 11.129 1974.815 10.273" />
<path fill="none" stroke="#000000" stroke-width="1.000" d="M1977.200 9.286C1976.875 11.547 1977.772 11.533 1977.362 12.968C1982.455 13.342 1985.050 12.707 1989.273 12.747C1990.271 11.079 1989.350 10.391 1989.985 8.157" />
<path fill="none" stroke="#000000" stroke-width="1.000" d="M1992.047 7.608C1992.810 10.119 1992.529 10.103 1993.358 12.565C1992.302 12.629 1993.867 12.522 1993.193 12.632C1997.039 11.925 2001.105 11.698 2004.625 12.810C2004.374 11.518 2004.172 9.832 2004.294 8.930" />
<path fill="none" stroke="#000000" stroke-width="1.000" d="M2008.692 9.044C2008.492 10.118 2007.514 11.157 2007.166 12.915C2011.256 13.762 2016.525 12.765 2019.303 12.556C2019.155 11.609 2020.463 9.972 2020.655 9.665" />
<path fill="none" stroke="#000000" stroke-width="1.000" d="M2023.341 9.953C2023.522 10.986 2023.270 12.522 2022.413 12.891C2026.095 14.104 2030.479 13.195 2034.870 13.759C2034.588 13.161 2035.137 11.329 2035.723 10.758" />
<path fill="none" stroke="#000000" stroke-width="1.000" d="M2037.569 10.623C2038.088 11.198 2038.051 12.600 2038.134 13.674C2038.185 14.333 2038.152 14.385 2037.764 14.084C2042.563 14.287 2045.504 13.640 2049.976 13.760C2048.999 13.894 2049.301 11.186 2049.649 9.749" />
<path fill="none" stroke="#000000" stroke-width="1.000" d="M2052.722 11.073C2053.194 12.315 2052.856 13.384 2052.364 14.776C2056.926 14.205 2060.816 14.834 2064.366 14.622C2064.100 13.743 2064.491 12.828 2064.459 10.589" />
<path fill="none" stroke="#000000" stroke-width="1.000" d="M2067.788 10.490C2068.115 13.192 2068.495 13.748 2067.548 14.966C2071.843 14.942 2075.603 15.147 2078.025 15.673C2078.300 15.424 2078.868 15.580 2080.131 15.986C2080.477 13.912 2079.916 12.198 2080.162 11.457" />
<path fill="none" stroke="#000000" stroke-width="1.000" d="M2083.182 11.381C2083.505 12.315 2082.898 13.705 2082.649 16.194C2085.426 15.689 2089.730 15.029 2094.831 15.956C2095.002 13.934 2095.037 12.239 2094.427 12.091" />
<path fill="none" stroke="#000000" stroke-width="1.000" d="M2097.875 11.172C2098.602 13.401 2097.550 14.003 2098.612 14.621C2101.604 15.939 2106.322 15.017 2110.296 15.485C2109.815 13.612 2109.357 12.662 2110.546 11.573" />
<path fill="none" stroke="#000000" stroke-width="1.000" d="M2113.552 10.768C2113.456 12.466 2113.523 14.219 2112.488 14.344C2117.548 15.314 2123.017 14.169 2125.484 14.669C2124.662 12.900 2124.217 11.457 2125.506 10.880" />
<path fill="none" stroke="#000000" stroke-width="1.000" d="M2128.084 9.821C2127.499 11.216 2127.108 13.407 2127.768 14.456C2130.219 14.415 2135.153 13.716 2139.381 13.981C2140.465 12.381 2139.280 10.464 2139.692 9.508" />
<path fill="none" stroke="#000000" stroke-width="1.000" d="M2141.968 8.850C2142.807 11.578 2142.685 11.790 2142.939 12.862C2146.702 13.457 2151.309 13.845 2154.454 11.998C2154.815 11.143 2153.983 10.297 2153.930 8.013" />
<path fill="none" stroke="#000000" stroke-width="1.000" d="M2157.162 9.135C2157.643 10.686 2157.717 11.874 2157.983 12.491C2162.005 12.265 2166.739 12.376 2169.378 12.551C2170.390 10.938 2170.137 9.002 2169.793 8.143" />
<path fill="none" stroke="#000000" stroke-width="1.000" d="M2172.472 7.248C2172.460 9.132 2173.589 10.634 2172.273 12.308C2177.938 11.206 2181.562 11.405 2184.630 10.873C2185.085 9.407 2184.150 8.379 2185.062 6.354" />
<path fill="none" stroke="#000000" stroke-width="1.000" d="M2187.264 6.034C2187.742 8.058 2187.399 8.992 2187.355 10.111C2188.183 10.471 2187.552 10.511 2187.524 10.804C2188.839 10.714 2194.500 9.013 2200.130 9.113C2200.270 6.590 2198.775 5.770 2199.739 4.715" />
<path fill="none" stroke="#000000" stroke-width="1.000" d="M2202.122 3.546C2201.974 5.802 2202.620 7.433 2202.027 7.694C2206.077 8.182 2211.588 7.429 2213.991 6.609C2214.994 5.064 2214.771 3.761 2213.374 1.991" />
<path fill="none" stroke="#000000" stroke-width="1.000" d="M2217.806 1.303C2217.097 3.687 2216.733 4.664 2217.789 5.392C2218.941 6.291 2220.629 5.245 2221.786 5.426C2222.274 5.398 2225.217 5.159 2229.985 5.774C2230.391 5.088 2229.155 3.570 2229.907 1.153" />
<path fill="none" stroke="#000000" stroke-width="1.000" d="M2233.471 2.389C2232.177 3.223 2233.234 4.487 2233.362 5.675C2236.685 5.324 2241.030 6.447 2243.773 5.758C2245.368 5.392 2245.324 3.988 2244.809 1.310" />
<path fill="none" stroke="#000000" stroke-width="1.000" d="M2248.479 2.332C2247.642 3.173 2246.818 5.279 2247.374 6.622C2251.927 5.484 2256.466 5.604 2259.962 6.440C2258.959 4.433 2259.890 3.486 2260.359 2.043" />
<path fill="none" stroke="#000000" stroke-width="1.000" d="M2262.394 2.152C2262.408 4.390 2263.306 5.375 2262.093 6.733C2267.453 6.084 2270.102 6.643 2270.999 7.657C2271.570 7.368 2272.269 8.358 2274.159 8.833C2274.940 8.061 2274.617 5.517 2275.305 4.837" />
<path fill="none" stroke="#000000" stroke-width="1.000" d="M2278.119 7.200C2277.440 6.943 2276.682 8.390 2277.556 9.770C2277.681 10.368 2278.294 10.599 2280.475 11.412C2281.887 13.081 2284.167 15.270 2286.484 17.598C2287.463 16.086 2287.609 15.023 2288.259 13.464" />
<path fill="none" stroke="#000000" stroke-width="1.000" d="M2290.833 16.802C2291.074 17.459 2290.312 17.712 2289.070 19.331C2291.828 21.527 2294.930 24.821 2297.679 26.585C2298.359 25.556 2299.390 24.434 2300.176 23.842" />
<path fill="none" stroke="#000000" stroke-width="1.000" d="M2302.220 26.532C2300.896 27.314 2300.065 27.399 2299.607 29.429C2301.746 30.564 2305.126 32.760 2306.918 34.417C2306.743 36.329 2307.833 36.459 2309.691 37.019C2310.489 35.508 2310.734 34.233 2311.292 33.642" />
<path fill="none" stroke="#000000" stroke-width="1.000" d="M2313.556 35.262C2312.759 36.767 2312.042 37.114 2310.688 38.721C2313.768 41.932 2317.616 44.562 2320.343 45.509C2321.045 45.609 2322.497 44.101 2323.002 42.900" />
<path fill="none" stroke="#000000" stroke-width="1.000" d="M2326.208 44.304C2325.481 45.113 2323.469 46.639 2323.128 47.338C2324.643 48.946 2327.244 51.465 2328.903 52.671C2329.567 53.615 2330.841 54.560 2332.078 55.869C2333.314 53.933 2334.489 53.214 2335.315 53.088" />
<path fill="none" stroke="#000000" stroke-width="1.000" d="M2337.895 54.667C2336.987 55.637 2336.524 56.570 2334.514 56.769C2337.253 59.997 2341.527 61.835 2345.094 65.050C2345.005 63.469 2345.405 62.596 2347.464 62.022" />
<path fill="none" stroke="#000000" stroke-width="1.000" d="M2349.119 64.310C2347.947 64.749 2348.013 65.534 2347.177 66.606C2349.933 70.714 2354.312 72.339 2355.414 74.627C2356.692 72.816 2357.696 73.015 2358.712 71.950" />
<path fill="none" stroke="#000000" stroke-width="1.000" d="M2360.248 73.206C2360.763 74.556 2359.243 74.843 2359.042 76.462C2358.901 76.010 2359.476 75.809 2359.584 77.117C2359.366 76.355 2365.778 77.488 2371.167 77.880C2369.990 75.358 2370.682 75.115 2371.278 72.547" />
<path fill="none" stroke="#000000" stroke-width="1.000" d="M2374.506 72.790C2374.098 75.469 2373.518 76.389 2373.089 76.803C2377.941 77.910 2381.951 78.628 2382.092 77.774C2382.167 78.693 2383.340 79.714 2385.133 78.858C2385.852 78.294 2386.855 77.573 2386.158 76.615" />
<path fill="none" stroke="#000000" stroke-width="1.000" d="M2389.758 76.970C2389.219 78.194 2389.236 79.915 2388.782 79.865C2392.268 82.077 2395.751 82.425 2398.829 85.189C2400.567 83.997 2400.204 81.346 2401.333 80.172" />
<path fill="none" stroke="#000000" stroke-width="1.000" d="M2404.218 81.299C2403.146 83.049 2402.245 84.058 2401.792 85.912C2405.218 86.565 2407.783 86.827 2409.341 87.715C2410.061 87.526 2410.840 88.251 2413.376 88.524C2414.031 87.678 2414.649 85.846 2413.818 84.573" />
<path fill="none" stroke="#000000" stroke-width="1.000" d="M2417.313 84.863C2418.082 85.332 2417.349 88.195 2417.477 88.510C2421.444 89.360 2424.919 90.467 2429.324 90.927C2429.743 89.649 2428.879 87.060 2428.878 87.074" />
<path fill="none" stroke="#000000" stroke-width="1.000" d="M2431.789 86.640C2432.733 88.769 2432.247 89.576 2431.451 90.202C2432.798 91.193 2432.965 90.134 2432.790 90.646C2436.073 91.080 2440.480 90.893 2444.038 89.584C2444.313 88.372 2444.491 88.223 2444.205 86.722" />
<path fill="none" stroke="#000000" stroke-width="1.000" d="M2445.923 85.422C2446.366 88.149 2447.328 89.215 2446.807 89.693C2451.210 89.962 2454.206 90.448 2458.319 89.621C2458.086 88.420 2459.338 86.549 2458.380 85.962" />
<path fill="none" stroke="#000000" stroke-width="1.000" d="M2461.894 84.733C2461.866 86.748 2461.983 87.595 2461.580 89.666C2465.158 88.835 2469.874 88.913 2473.357 89.118C2473.550 87.990 2473.977 86.491 2473.458 85.347" />
<path fill="none" stroke="#000000" stroke-width="1.000" d="M2476.252 85.525C2477.200 85.686 2477.514 87.183 2477.211 89.332C2480.442 89.223 2485.121 87.704 2488.823 89.033C2489.485 86.890 2489.084 84.858 2488.252 84.369" />
<path fill="none" stroke="#000000" stroke-width="1.000" d="M2491.737 83.403C2491.490 85.994 2492.318 86.834 2492.006 87.303C2496.363 87.710 2499.050 88.282 2504.356 88.354C2503.738 86.927 2503.494 85.522 2504.206 83.715" />
<path fill="none" stroke="#000000" stroke-width="1.000" d="M2506.386 82.990C2506.947 84.379 2506.659 86.262 2506.429 88.178C2508.953 87.575 2513.029 86.861 2514.229 86.851C2515.612 86.399 2517.986 87.994 2519.477 87.857C2518.723 86.003 2518.704 84.586 2519.543 83.321" />
<path fill="none" stroke="#000000" stroke-width="1.000" d="M2521.550 83.664C2522.640 85.758 2521.398 85.980 2521.825 88.039C2526.298 87.849 2529.943 89.342 2534.045 88.447C2533.430 88.209 2533.878 85.736 2535.062 84.570" />
<path fill="none" stroke="#000000" stroke-width="1.000" d="M2537.355 85.853C2536.595 86.127 2537.782 87.108 2536.276 90.058C2540.483 89.548 2544.798 90.103 2549.065 90.113C2548.579 89.668 2548.740 90.968 2548.758 90.533C2548.811 88.484 2549.413 87.711 2550.163 86.063" />
<path fill="none" stroke="#000000" stroke-width="1.000" d="M2551.678 87.596C2552.482 88.751 2551.619 90.025 2551.359 90.798C2554.926 92.311 2560.034 91.799 2562.965 92.718C2563.716 91.623 2563.549 90.483 2565.031 90.081" />
<path fill="none" stroke="#000000" stroke-width="1.000" d="M2567.702 90.175C2566.326 91.214 2567.445 91.760 2565.873 94.004C2569.896 94.641 2573.753 94.967 2578.122 95.640C2578.912 95.151 2579.270 94.230 2579.580 91.599" />
<path fill="none" stroke="#000000" stroke-width="1.000" d="M2582.016 92.477C2582.131 93.849 2581.653 95.336 2581.521 97.389C2585.650 97.868 2589.372 98.838 2592.739 99.212C2592.868 97.844 2593.008 96.513 2594.232 95.048" />
<path fill="none" stroke="#000000" stroke-width="1.000" d="M2596.142 95.352C2595.876 96.805 2595.853 98.590 2596.239 98.750C2597.780 98.993 2599.051 100.194 2601.848 100.653C2603.435 101.492 2604.987 101.407 2606.880 102.220C2608.335 100.357 2609.272 100.294 2609.012 99.272" />
<path fill="none" stroke="#000000" stroke-width="1.000" d="M2611.360 99.658C2611.495 101.625 2610.863 101.374 2610.862 103.243C2613.735 104.831 2618.371 104.936 2621.653 106.799C2622.937 105.050 2623.378 104.946 2623.857 103.216" />
<path fill="none" stroke="#000000" stroke-width="1.000" d="M2626.537 104.275C2624.957 104.712 2624.539 106.212 2624.494 108.140C2628.050 108.578 2632.909 110.226 2635.615 111.098C2636.770 110.539 2636.499 108.376 2637.858 107.699" />
<path fill="none" stroke="#000000" stroke-width="1.000" d="M2639.761 109.290C2640.675 109.139 2639.016 111.348 2639.419 111.668C2640.520 113.354 2641.284 112.364 2642.536 114.107C2645.682 114.114 2648.052 115.138 2650.547 115.530C2651.956 113.208 2651.124 112.464 2651.507 111.485" />
<path fill="none" stroke="#000000" stroke-width="1.000" d="M2653.927 112.121C2654.880 113.527 2653.610 114.670 2653.446 116.180C2658.274 115.248 2662.332 116.790 2666.443 116.978C2665.645 115.936 2666.016 114.398 2666.243 112.913" />
<path fill="none" stroke="#000000" stroke-width="1.000" d="M2670.098 114.596C2669.346 115.933 2669.646 116.295 2668.910 118.404C2672.139 119.066 2674.239 119.400 2677.228 119.594C2678.582 119.020 2678.888 119.295 2681.437 119.191C2680.089 117.826 2680.800 116.045 2680.168 114.092" />
<path fill="none" stroke="#000000" stroke-width="1.000" d="M2683.346 114.399C2683.726 116.001 2683.538 117.486 2683.749 117.629C2687.297 117.970 2692.293 117.221 2694.833 117.208C2695.279 114.394 2694.640 114.480 2694.283 113.303" />
<path fill="none" stroke="#000000" stroke-width="1.000" d="M2697.474 112.193C2698.446 113.106 2698.035 114.135 2698.151 115.434C2699.187 116.204 2698.901 115.662 2700.594 115.686C2704.445 115.520 2707.709 115.726 2710.316 115.754C2711.017 115.558 2711.307 114.188 2710.356 112.034" />
<path fill="none" stroke="#000000" stroke-width="1.000" d="M2713.763 113.212C2712.913 113.318 2712.707 114.675 2713.699 116.044C2717.352 116.108 2719.535 116.659 2723.078 116.589C2724.757 117.160 2724.845 116.781 2725.453 116.577C2725.037 115.725 2725.355 113.978 2725.873 112.353" />
<path fill="none" stroke="#000000" stroke-width="1.000" d="M2729.563 113.690C2728.202 115.127 2728.860 115.342 2728.504 116.603C2733.264 117.166 2735.760 117.890 2739.688 118.232C2740.482 117.134 2740.216 115.947 2740.676 114.381" />
<path fill="none" stroke="#000000" stroke-width="1.000" d="M2744.022 114.022C2743.675 115.197 2744.274 116.943 2743.884 118.377C2748.088 118.948 2751.919 118.757 2754.854 118.803C2754.779 117.540 2755.812 117.006 2756.454 114.886" />
<path fill="none" stroke="#000000" stroke-width="1.000" d="M2758.269 115.438C2759.168 116.856 2758.768 117.993 2758.773 119.318C2762.853 119.412 2766.048 120.987 2771.033 120.187C2770.516 119.124 2770.763 118.968 2771.084 116.115" />
<path fill="none" stroke="#000000" stroke-width="1.000" d="M2773.142 117.662C2774.188 118.563 2773.343 120.356 2772.652 121.253C2777.276 121.679 2781.393 121.375 2785.399 121.434C2785.121 120.743 2785.491 119.294 2785.938 118.393" />
<path fill="none" stroke="#000000" stroke-width="1.000" d="M2788.214 117.897C2788.002 119.854 2787.713 121.315 2788.040 122.171C2792.987 122.215 2796.275 122.922 2799.639 123.858C2799.861 122.795 2800.103 120.429 2800.371 118.813" />
<path fill="none" stroke="#000000" stroke-width="1.000" d="M2804.173 118.962C2803.602 121.133 2803.060 122.641 2802.623 123.747C2807.027 123.293 2811.129 124.251 2814.581 124.477C2815.204 122.912 2815.848 122.568 2816.144 120.728" />
<path fill="none" stroke="#000000" stroke-width="1.000" d="M2818.442 121.263C2818.256 121.808 2818.788 124.390 2818.696 124.401C2822.867 125.441 2826.747 125.341 2830.855 125.869C2831.129 124.069 2831.292 123.075 2831.046 122.712" />
<path fill="none" stroke="#000000" stroke-width="1.000" d="M2833.137 121.484C2834.081 124.260 2833.460 124.740 2832.979 125.814C2834.523 126.389 2834.294 126.091 2834.274 126.716C2838.590 125.759 2841.921 126.959 2845.197 125.625C2845.343 125.618 2845.636 123.092 2844.784 121.632" />
<path fill="none" stroke="#000000" stroke-width="1.000" d="M2848.443 122.891C2847.663 123.205 2848.538 125.163 2847.790 126.220C2852.632 125.900 2856.599 125.958 2860.605 126.488C2859.835 125.339 2859.824 123.248 2859.857 121.935" />
<path fill="none" stroke="#000000" stroke-width="1.000" d="M2864.016 121.872C2864.061 123.441 2864.014 124.641 2863.001 125.832C2867.564 125.736 2871.638 126.191 2875.968 125.813C2874.614 124.353 2875.499 123.139 2875.856 121.647" />
<path fill="none" stroke="#000000" stroke-width="1.000" d="M2879.224 122.583C2878.212 123.782 2878.273 125.294 2878.495 125.622C2880.945 126.330 2882.504 126.669 2884.374 125.721C2885.882 127.029 2887.692 127.199 2890.711 126.604C2890.769 126.010 2890.879 124.794 2890.345 123.768" />
<path fill="none" stroke="#000000" stroke-width="1.000" d="M2894.381 123.930C2893.855 125.513 2893.176 126.141 2892.920 126.898C2897.040 127.418 2901.663 128.082 2905.934 129.937C2905.843 127.944 2905.597 126.704 2906.540 125.577" />
<path fill="none" stroke="#000000" stroke-width="1.000" d="M2909.319 125.065C2907.867 127.716 2908.343 127.631 2909.022 129.584C2911.998 130.832 2916.943 130.329 2920.780 132.094C2920.249 129.375 2920.171 129.206 2921.168 127.372" />
<path fill="none" stroke="#000000" stroke-width="1.000" d="M2924.399 127.646C2923.603 128.859 2923.558 131.040 2923.442 132.548C2924.020 132.625 2925.833 132.354 2928.458 133.032C2928.501 132.555 2930.896 131.999 2935.906 132.514C2935.444 130.430 2935.311 129.118 2935.364 127.755" />
<path fill="none" stroke="#000000" stroke-width="1.000" d="M2938.030 129.027C2937.283 129.372 2938.802 131.598 2937.427 132.968C2943.088 131.618 2949.220 132.008 2948.763 131.878C2949.274 132.020 2950.240 132.566 2950.349 131.537C2949.717 130.346 2949.418 129.708 2949.815 128.073" />
<path fill="none" stroke="#000000" stroke-width="1.000" d="M2951.910 126.922C2952.362 128.759 2953.572 129.642 2953.376 131.368C2955.632 130.666 2961.172 130.099 2964.981 130.386C2963.959 128.322 2963.740 126.987 2963.714 126.124" />
<path fill="none" stroke="#000000" stroke-width="1.000" d="M2967.824 125.632C2967.325 127.214 2967.816 128.416 2967.266 129.467C2971.928 128.613 2976.423 127.651 2979.792 127.401C2980.212 126.497 2978.970 124.244 2979.044 122.925" />
<path fill="none" stroke="#000000" stroke-width="1.000" d="M2982.445 122.492C2981.999 124.366 2982.259 125.241 2982.134 127.526C2986.089 126.985 2989.046 125.301 2988.511 126.668C2990.330 125.569 2991.565 124.565 2993.590 123.854C2993.448 122.697 2992.899 121.810 2993.796 119.976" />
<path fill="none" stroke="#000000" stroke-width="1.000" d="M2995.701 118.788C2996.044 121.025 2996.717 121.584 2996.614 122.159C3001.158 121.355 3004.581 120.619 3009.336 118.952C3008.970 118.255 3007.410 116.357 3007.930 114.593" />
<path fill="none" stroke="#000000" stroke-width="1.000" d="M3009.640 114.244C3010.148 115.627 3011.642 116.303 3011.527 117.452C3015.343 117.088 3017.332 115.235 3020.180 114.838C3021.230 115.144 3022.889 114.038 3023.396 114.275C3022.410 114.095 3022.592 112.778 3021.902 111.101" />
<path fill="none" stroke="#000000" stroke-width="1.000" d="M3025.252 110.516C3025.900 111.173 3026.528 113.101 3025.673 113.684C3030.601 114.418 3033.550 112.749 3038.484 112.132C3038.216 110.865 3037.187 110.363 3036.727 109.276" />
<path fill="none" stroke="#000000" stroke-width="1.000" d="M3040.094 108.129C3040.377 108.999 3039.878 110.464 3041.252 112.732C3044.363 111.510 3047.562 111.412 3051.142 110.342C3052.459 111.280 3052.989 109.829 3052.887 110.832C3052.838 109.443 3051.719 107.519 3051.674 106.214" />
<path fill="none" stroke="#000000" stroke-width="1.000" d="M3055.835 106.269C3055.624 107.975 3055.674 107.801 3054.858 109.659C3060.265 108.879 3062.913 108.825 3068.206 107.876C3067.173 107.070 3067.879 104.750 3066.682 104.288" />
<path fill="none" stroke="#000000" stroke-width="1.000" d="M3069.640 103.732C3070.119 104.857 3070.251 106.482 3070.323 107.343C3074.424 106.917 3079.238 106.931 3083.064 105.199C3082.348 103.786 3081.818 103.247 3081.387 102.040" />
<path fill="none" stroke="#000000" stroke-width="1.000" d="M3084.380 101.879C3085.212 102.988 3085.992 103.704 3085.869 105.135C3089.134 105.170 3091.558 104.873 3094.795 104.597C3095.712 103.981 3096.222 104.330 3097.705 103.858C3096.356 101.659 3097.342 101.293 3097.054 100.281" />
<path fill="none" stroke="#000000" stroke-width="1.000" d="M3100.170 99.386C3100.559 100.650 3100.877 102.694 3100.070 102.951C3104.787 103.270 3108.446 102.300 3113.036 102.352C3111.691 100.804 3112.563 99.424 3111.009 98.665" />
<path fill="none" stroke="#000000" stroke-width="1.000" d="M3115.081 97.170C3115.199 98.535 3115.767 100.107 3115.317 102.331C3119.635 102.105 3123.565 100.095 3127.678 100.594C3127.767 98.430 3126.833 98.230 3126.540 96.996" />
<path fill="none" stroke="#000000" stroke-width="1.000" d="M3129.730 96.876C3129.800 96.820 3129.481 99.191 3130.184 99.966C3133.647 98.951 3137.937 99.315 3141.316 99.556C3141.558 97.457 3141.431 96.104 3141.458 95.586" />
<path fill="none" stroke="#000000" stroke-width="1.000" d="M3145.285 94.676C3145.921 96.031 3144.309 96.747 3144.759 98.530C3144.853 98.072 3145.297 97.950 3144.752 99.381C3149.554 98.756 3153.373 100.313 3157.224 100.242C3156.863 99.206 3156.870 97.265 3157.444 97.249" />
<path fill="none" stroke="#000000" stroke-width="1.000" d="M3160.352 96.818C3160.785 98.420 3159.534 99.886 3159.706 100.447C3164.681 102.279 3167.481 101.800 3171.109 103.241C3171.927 102.715 3172.266 100.933 3172.934 98.945" />
<path fill="none" stroke="#000000" stroke-width="1.000" d="M3175.338 100.001C3175.275 101.986 3175.142 103.312 3174.521 104.133C3177.192 103.488 3179.210 103.747 3180.378 105.117C3181.693 104.654 3184.423 105.987 3185.759 105.975C3186.609 104.647 3186.719 103.350 3186.752 102.597" />
<path fill="none" stroke="#000000" stroke-width="1.000" d="M3190.133 103.123C3190.565 104.405 3188.896 106.346 3188.513 107.312C3193.285 109.121 3197.839 109.239 3200.153 110.170C3201.959 109.868 3200.920 107.926 3202.343 106.114" />
<path fill="none" stroke="#000000" stroke-width="0.500" d="M2964.906 106.135C2964.080 106.073 2963.901 104.658 2963.002 104.788C2961.835 104.958 2962.723 107.441 2961.303 107.368C2959.763 107.289 2961.103 104.862 2960.017 104.464C2958.799 104.017 2958.748 105.997 2957.866 106.408C2956.791 106.908 2955.995 105.465 2954.934 105.385" />
<path fill="none" stroke="#000000" stroke-width="0.500" d="M2956.577 107.257C2955.944 106.817 2955.668 105.756 2954.934 105.385C2955.715 105.128 2956.660 105.683 2957.419 105.547Z" />
<path fill="#000000" stroke="none" d="M2956.577 107.257C2955.944 106.817 2955.668 105.756 2954.934 105.385C2955.715 105.128 2956.660 105.683 2957.419 105.547Z" />
<path fill="none" stroke="#000000" stroke-width="0.500" d="M2825.706 103.735C2824.880 103.673 2824.701 102.258 2823.802 102.388C2822.635 102.558 2823.523 105.041 2822.103 104.968C2820.563 104.889 2821.903 102.462 2820.817 102.064C2819.599 101.617 2819.548 103.597 2818.666 104.008C2817.591 104.508 2816.795 103.065 2815.734 102.985" />
<path fill="none" stroke="#000000" stroke-width="0.500" d="M2817.377 104.857C2816.744 104.417 2816.468 103.356 2815.734 102.985C2816.515 102.728 2817.460 103.283 2818.219 103.147Z" />
<path fill="#000000" stroke="none" d="M2817.377 104.857C2816.744 104.417 2816.468 103.356 2815.734 102.985C2816.515 102.728 2817.460 103.283 2818.219 103.147Z" />
<path fill="none" stroke="#000000" stroke-width="0.500" d="M2611.626 82.615C2610.800 82.553 2610.621 81.138 2609.722 81.268C2608.555 81.438 2609.443 83.921 2608.023 83.848C2606.483 83.769 2607.823 81.342 2606.737 80.944C2605.519 80.497 2605.468 82.477 2604.586 82.888C2603.511 83.388 2602.715 81.945 2601.654 81.865" />
<path fill="none" stroke="#000000" stroke-width="0.500" d="M2603.297 83.737C2602.664 83.297 2602.388 82.236 2601.654 81.865C2602.435 81.608 2603.380 82.163 2604.139 82.027Z" />
<path fill="#000000" stroke="none" d="M2603.297 83.737C2602.664 83.297 2602.388 82.236 2601.654 81.865C2602.435 81.608 2603.380 82.163 2604.139 82.027Z" />
<path fill="none" stroke="#000000" stroke-width="0.500" d="M2431.146 57.655C2430.320 57.593 2430.141 56.178 2429.242 56.308C2428.075 56.478 2428.963 58.961 2427.543 58.888C2426.003 58.809 2427.343 56.382 2426.257 55.984C2425.039 55.537 2424.988 57.517 2424.106 57.928C2423.031 58.428 2422.235 56.985 2421.174 56.905" />
<path fill="none" stroke="#000000" stroke-width="0.500" d="M2422.817 58.777C2422.184 58.337 2421.908 57.276 2421.174 56.905C2421.955 56.648 2422.900 57.203 2423.659 57.067Z" />
<path fill="#000000" stroke="none" d="M2422.817 58.777C2422.184 58.337 2421.908 57.276 2421.174 56.905C2421.955 56.648 2422.900 57.203 2423.659 57.067Z" />
<path fill="none" stroke="#000000" stroke-width="0.500" d="M1813.386 12.535C1812.560 12.473 1812.381 11.058 1811.482 11.188C1810.315 11.358 1811.203 13.841 1809.783 13.768C1808.243 13.689 1809.583 11.262 1808.497 10.864C1807.279 10.417 1807.228 12.397 1806.346 12.808C1805.271 13.308 1804.475 11.865 1803.414 11.785" />
<path fill="none" stroke="#000000" stroke-width="0.500" d="M1805.057 13.657C1804.424 13.217 1804.148 12.156 1803.414 11.785C1804.195 11.528 1805.140 12.083 1805.899 11.947Z" />
<path fill="#000000" stroke="none" d="M1805.057 13.657C1804.424 13.217 1804.148 12.156 1803.414 11.785C1804.195 11.528 1805.140 12.083 1805.899 11.947Z" />
<path fill="#000000" stroke="none" d="M1.479 344.845L10.906 340.957L0.708 340.920Z" />
<path fill="none" stroke="#000000" stroke-width="1.000" d="M2431.440 185.440L2400.720 170.560L2368.560 164.320L2338.320 147.040L2298.000 123.520L2279.280 118.240L2252.400 120.640C2252.400 120.640 2228.400 88.960 2224.560 88.960C2220.720 88.960 2187.120 72.640 2184.240 73.120C2181.360 73.600 2130.480 67.840 2128.560 67.360C2126.640 66.880 2046.480 75.040 2043.600 75.520C2040.720 76.000 2010.960 85.600 2010.960 85.600L1974.480 88.000C1974.480 88.000 1938.960 94.720 1936.560 95.200C1934.160 95.680 1903.440 105.760 1900.080 106.240C1896.720 106.720 1846.800 111.040 1846.800 111.040L1817.520 115.840L1786.320 130.720L1739.760 151.840L1721.040 166.240L1674.480 172.960L1639.440 184.480L1582.800 209.440L1561.200 222.880C1561.200 222.880 1459.920 253.600 1458.000 253.120C1456.080 252.640 1394.160 259.360 1392.240 259.360C1390.320 259.360 1366.320 271.840 1366.320 271.840L1313.040 298.240L1280.880 307.840L1203.600 303.040L1152.240 304.000L1112.400 299.680L1076.880 300.160C1076.880 300.160 978.960 332.800 973.200 333.760C967.440 334.720 924.720 353.920 921.360 354.400C918.000 354.880 887.760 361.600 885.840 362.080C883.920 362.560 822.480 394.720 822.480 394.720L776.880 423.040L765.360 428.800C765.360 428.800 745.680 423.520 743.760 423.040C741.840 422.560 711.120 399.520 711.120 399.520C711.120 399.520 688.080 388.480 686.640 388.000C685.200 387.520 670.800 381.280 670.800 381.280L652.080 388.480L629.040 384.160L538.800 380.320C538.800 380.320 506.640 381.760 502.800 382.240C498.960 382.720 471.120 390.880 471.120 390.880C471.120 390.880 447.600 396.160 441.360 396.640C435.120 397.120 402.000 400.960 402.000 400.960L379.440 393.760L354.000 379.360L316.080 360.160L285.840 354.880C285.840 354.880 251.760 345.760 249.360 345.760C246.960 345.760 210.960 354.880 210.960 354.880L190.320 354.880C190.320 354.880 171.600 352.960 170.160 352.480C168.720 352.000 144.240 350.560 144.240 350.560L115.440 368.320L94.800 374.560L72.720 374.560L51.120 383.200L40.080 412.480" />
<path fill="none" stroke="#000000" stroke-width="0.500" d="M2436.493 184.194C2436.451 183.367 2437.833 183.011 2437.590 182.135C2437.276 180.999 2434.923 182.192 2434.818 180.774C2434.704 179.235 2437.279 180.261 2437.538 179.134C2437.829 177.869 2435.858 178.067 2435.340 177.243C2434.709 176.240 2436.041 175.269 2435.987 174.206" />
<path fill="none" stroke="#000000" stroke-width="0.500" d="M2434.335 176.071C2434.693 175.387 2435.711 174.981 2435.987 174.206C2436.340 174.949 2435.907 175.956 2436.137 176.693Z" />
<path fill="#000000" stroke="none" d="M2434.335 176.071C2434.693 175.387 2435.711 174.981 2435.987 174.206C2436.340 174.949 2435.907 175.956 2436.137 176.693Z" />
<path fill="none" stroke="#000000" stroke-width="1.000" d="M3204.720 123.040C3204.720 123.040 3199.920 133.600 3196.560 139.840C3193.200 146.080 3187.920 174.880 3184.560 178.240C3181.200 181.600 3170.160 200.800 3164.400 204.640C3158.640 208.480 3141.840 221.440 3138.000 222.400C3134.160 223.360 3109.200 231.040 3099.120 232.480C3089.040 233.920 3054.960 241.120 3054.960 241.120L3022.320 225.760L2975.760 210.400L2957.040 206.080L2858.160 175.360C2858.160 175.360 2836.560 176.800 2835.120 177.280C2833.680 177.760 2801.520 188.320 2801.520 188.320L2769.840 184.960L2728.080 190.720C2728.080 190.720 2683.440 219.520 2681.040 221.920C2678.640 224.320 2652.720 258.880 2652.720 258.880L2633.040 289.120L2622.960 299.680L2596.080 272.800L2579.760 243.520C2579.760 243.520 2574.960 229.120 2570.640 227.680C2566.320 226.240 2546.640 219.040 2545.200 218.080C2543.760 217.120 2488.560 197.920 2488.560 197.920L2439.600 186.880" />
</g>
<g id="X_aaaaaaa_output/obodska_ext.svg">
</g>
<clipPath id="clip_viewBox">
<path d="M-66.166 -308.120L3196.527 -308.120L3196.527 178.573L-66.166 178.573z" />
</clipPath>
</defs>
<g transform="scale(1,-1)" fill="#000000" stroke="#000000" stroke-linecap="round" stroke-linejoin="round" stroke-miterlimit="10" fill-rule="evenodd" clip-rule="evenodd" clip-path="url(#clip_viewBox)">
<g fill="#cccccc">
<use x="-14.820" y="-274.774" xlink:href="#I_aaaaaaa_output/obodska_ext.svg" />
</g>
<use x="36.180" y="-305.774" xlink:href="#F_aaaaaaa_output/obodska_ext.svg" />
<use x="-37.820" y="-279.774" xlink:href="#E_aaaaaaa_output/obodska_ext.svg" />
</g>
</svg>
